<?xml version="1.0" encoding="UTF-8"?>
<svg width="256px" height="177px" viewBox="0 0 256 177" version="1.1" xmlns="http://www.w3.org/2000/svg" xmlns:xlink="http://www.w3.org/1999/xlink">
    <title>AA - On Dark Grey</title>
    <defs>
        <filter id="filter-1">
            <feColorMatrix in="SourceGraphic" type="matrix" values="0 0 0 0 0.415686 0 0 0 0 0.435294 0 0 0 0 0.509804 0 0 0 1.000000 0"></feColorMatrix>
        </filter>
    </defs>
    <g id="AscensiveAssets" stroke="none" stroke-width="1" fill="none" fill-rule="evenodd">
        <g filter="url(#filter-1)" id="AA---On-Dark-Grey">
            <g>
                <polygon id="Path_13" fill="#15BEA0" fill-rule="nonzero" points="184.206629 131.960686 256 131.960686 134.637714 0 134.637714 109.853257 121.910857 109.853257 121.910857 0 0 131.960686 72.3419429 131.960686 72.3419429 109.853257 52.2496 109.853257 98.4685714 64.6619429 98.4685714 131.953371 158.08 131.953371 158.08 64.6619429 203.794286 109.853257 184.206629 109.853257"></polygon>
                <path d="M11.5309714,169.325714 L8.77714286,162.172343 C8.69668571,161.960229 8.61257143,161.7152 8.52114286,161.440914 C8.42971429,161.166629 8.3456,160.855771 8.26514286,160.5376 C8.12670568,161.09975 7.95076901,161.651996 7.73851429,162.190629 L4.97737143,169.325714 L11.5309714,169.325714 Z M16.4754286,175.839086 L14.6285714,175.839086 C14.4436399,175.848134 14.2613249,175.792535 14.1129143,175.681829 C13.9832441,175.574347 13.8826434,175.436021 13.8203429,175.279543 L12.1782857,171.044571 L4.31542857,171.044571 L2.67702857,175.264914 C2.6222373,175.419453 2.5245595,175.555187 2.39542857,175.656229 C2.24975649,175.77358 2.06671978,175.834592 1.87977143,175.828114 L0.0512,175.828114 L7.0656,158.273829 L9.46834286,158.273829 L16.4754286,175.839086 Z M30.2153143,161.024 C30.1565997,161.131374 30.0755386,161.224906 29.9776,161.298286 C29.8850361,161.361186 29.774945,161.39319 29.6630857,161.389714 C29.4830628,161.373117 29.3128583,161.300172 29.1766857,161.181257 C28.9865143,161.042286 28.7524571,160.888686 28.4708571,160.720457 C28.1486344,160.533421 27.8079253,160.380225 27.4541714,160.263314 C26.9901118,160.113953 26.5042857,160.04349 26.0169143,160.054857 C25.5401183,160.044792 25.0651253,160.116536 24.6125714,160.266971 C24.2408519,160.394312 23.8969756,160.591699 23.5995429,160.848457 C23.3299448,161.084842 23.1184525,161.38018 22.9814857,161.711543 C22.8395458,162.05202 22.7686117,162.417891 22.7730286,162.786743 C22.7581599,163.221797 22.8866546,163.649684 23.1387429,164.004571 C23.3985773,164.341007 23.7231234,164.622031 24.0932571,164.831086 C24.5218449,165.073795 24.9739984,165.272302 25.4427429,165.423543 C25.9437714,165.591771 26.4557714,165.763657 26.9824,165.946514 C27.5090286,166.129371 28.0210286,166.312229 28.5220571,166.546286 C29.0111691,166.76274 29.4658473,167.04984 29.8715429,167.3984 C30.2726814,167.749241 30.597554,168.178671 30.8260571,168.660114 C31.0823103,169.234895 31.2072435,169.85956 31.1917714,170.488686 C31.1967197,171.227528 31.0627361,171.960716 30.7968,172.650057 C30.5471547,173.310665 30.1593941,173.910385 29.6594286,174.409143 C29.1267361,174.92934 28.4915325,175.332881 27.7942857,175.594057 C26.9980363,175.890655 26.1533547,176.035776 25.3037714,176.021943 C24.2343798,176.037755 23.1737435,175.827124 22.1915429,175.403886 C21.2911586,175.00682 20.4801546,174.432152 19.8070857,173.714286 L20.48,172.617143 C20.546225,172.528999 20.6265422,172.452389 20.7177143,172.3904 C20.8105777,172.331086 20.9183827,172.299379 21.0285714,172.298971 C21.1597663,172.307986 21.2861041,172.352205 21.3942857,172.426971 C21.5296,172.514743 21.6832,172.6208 21.8550857,172.752457 C22.0269714,172.884114 22.2208,173.026743 22.4438857,173.180343 C22.6806323,173.345928 22.9315069,173.490334 23.1936,173.611886 C23.5031987,173.749625 23.825279,173.857394 24.1554286,173.933714 C24.5534393,174.025609 24.9611764,174.068593 25.3696,174.061714 C25.8813117,174.071403 26.3909096,173.993479 26.8763429,173.831314 C27.2901311,173.691749 27.6709749,173.468968 27.9954286,173.176686 C28.3020176,172.894743 28.5429661,172.548926 28.7012571,172.163657 C28.8685206,171.747681 28.9517969,171.302712 28.9462857,170.8544 C28.9644865,170.39274 28.8365017,169.937114 28.5805714,169.552457 C28.3296813,169.202361 28.0051157,168.9115 27.6297143,168.700343 C27.2046582,168.456004 26.7531337,168.260916 26.2838857,168.118857 L24.7442286,167.6288 C24.2215082,167.461128 23.7076289,167.26705 23.2045714,167.047314 C22.7106271,166.836321 22.2537648,166.547387 21.8514286,166.191543 C21.4465399,165.823432 21.1227178,165.375063 20.9005714,164.874971 C20.6424855,164.257022 20.5178596,163.59152 20.5348571,162.922057 C20.5366913,162.304015 20.6609904,161.692463 20.9005714,161.122743 C21.1423978,160.541677 21.5008752,160.016408 21.9538286,159.579429 C22.4441613,159.110507 23.0237039,158.744873 23.6580571,158.504229 C24.3980606,158.222964 25.185185,158.086396 25.9766857,158.101943 C26.8900022,158.090764 27.7975406,158.24822 28.6537143,158.5664 C29.4442464,158.869615 30.1665387,159.327108 30.7785143,159.912229 L30.2153143,161.024 Z M49.2946286,172.203886 C49.4269069,172.206115 49.5519569,172.26465 49.6384,172.3648 L50.5819429,173.381486 C49.8626509,174.212963 48.9701691,174.87702 47.9670857,175.327086 C46.7923007,175.821172 45.5253729,176.058098 44.2514286,176.021943 C43.0752554,176.040287 41.9077917,175.817498 40.8210286,175.367314 C39.8226771,174.953054 38.9247744,174.32951 38.1878857,173.538743 C37.4415084,172.715963 36.8670625,171.752336 36.4982857,170.704457 C36.086142,169.536062 35.8819111,168.304487 35.8948571,167.0656 C35.8802485,165.825898 36.0921829,164.593951 36.5202286,163.4304 C36.9072725,162.374277 37.5044471,161.4076 38.2756571,160.5888 C39.04216,159.795975 39.9666539,159.173001 40.9892571,158.760229 C42.0975662,158.313689 43.2833747,158.091194 44.4781714,158.1056 C45.6042936,158.088667 46.7227235,158.293712 47.7696,158.709029 C48.7019921,159.09491 49.5568971,159.646262 50.2930286,160.336457 L49.5104,161.4336 C49.4628304,161.514011 49.3978482,161.582742 49.3202286,161.634743 C49.2276103,161.693496 49.1188638,161.721642 49.0093714,161.7152 C48.8099463,161.693293 48.6221717,161.610264 48.4717714,161.477486 C48.2092893,161.274803 47.9358056,161.086783 47.6525714,160.914286 C46.6812475,160.374199 45.581682,160.107522 44.4708571,160.142629 C43.618934,160.130707 42.7732828,160.289888 41.984,160.610743 C41.2442713,160.917151 40.5812132,161.382915 40.0420571,161.974857 C39.4750274,162.612953 39.0433146,163.35943 38.7730286,164.169143 C38.4596066,165.104579 38.3074967,166.086492 38.3232,167.072914 C38.3043474,168.068207 38.4628592,169.058905 38.7913143,169.998629 C39.0724726,170.799976 39.508653,171.538128 40.0749714,172.170971 C40.6085397,172.758379 41.2654556,173.220469 41.9986286,173.524114 C42.7574747,173.839737 43.5722176,173.998954 44.3940571,173.992229 C44.8661651,173.994684 45.3378673,173.964134 45.8057143,173.9008 C46.2020254,173.843464 46.5916171,173.746679 46.9686857,173.611886 C47.3185167,173.485428 47.6523639,173.318505 47.9634286,173.114514 C48.2871373,172.896933 48.5917756,172.652244 48.8740571,172.383086 C48.9885177,172.275302 49.1376053,172.211778 49.2946286,172.203886 L49.2946286,172.203886 Z M66.6112,173.893486 L66.6112,175.828114 L55.7860571,175.828114 L55.7860571,158.273829 L66.5965714,158.273829 L66.5965714,160.212114 L58.1485714,160.212114 L58.1485714,166.034286 L64.9837714,166.034286 L64.9837714,167.895771 L58.1485714,167.895771 L58.1485714,173.886171 L66.6112,173.893486 Z M86.5938286,158.277486 L86.5938286,175.831771 L85.4052571,175.831771 C85.2436612,175.835733 85.0833712,175.801921 84.9371429,175.733029 C84.7935753,175.648525 84.6690574,175.535214 84.5714286,175.400229 L74.4155429,162.176 C74.4155429,162.3808 74.4448,162.581943 74.4521143,162.779429 C74.4594286,162.976914 74.4521143,163.145143 74.4521143,163.331657 L74.4521143,175.831771 L72.3712,175.831771 L72.3712,158.277486 L73.5926857,158.277486 C73.6827489,158.270218 73.7732511,158.270218 73.8633143,158.277486 C73.930324,158.287911 73.9955584,158.307604 74.0571429,158.336 C74.1195634,158.369857 74.1773387,158.411652 74.2290286,158.460343 C74.2956082,158.522051 74.3567838,158.589344 74.4118857,158.661486 L84.5750857,171.885714 C84.5750857,171.6736 84.5421714,171.4688 84.5312,171.267657 C84.5202286,171.066514 84.5312,170.876343 84.5312,170.697143 L84.5312,158.262857 L86.5938286,158.277486 Z M102.5024,161.020343 C102.44129,161.128165 102.359222,161.222668 102.261029,161.298286 C102.169593,161.360674 102.060824,161.392665 101.950171,161.389714 C101.76964,161.370833 101.598927,161.298216 101.460114,161.181257 C101.274819,161.042286 101.040762,160.888686 100.757943,160.720457 C100.435032,160.534766 100.094462,160.381632 99.7412571,160.263314 C99.2760023,160.113683 98.7889288,160.043218 98.3003429,160.054857 C97.8247424,160.044777 97.3509483,160.116527 96.8996571,160.266971 C96.5255198,160.391384 96.1799036,160.589057 95.8829714,160.848457 C95.6155479,161.086804 95.4044392,161.381607 95.2649143,161.711543 C95.1249993,162.051349 95.0541362,162.41561 95.0564571,162.783086 C95.041866,163.219238 95.1702973,163.648199 95.4221714,164.004571 C95.681128,164.341836 96.0058572,164.623019 96.3766857,164.831086 C96.8047551,165.07228 97.2555409,165.270723 97.7225143,165.423543 L99.2658286,165.942857 C99.7888,166.122057 100.304457,166.308571 100.805486,166.546286 C101.29392,166.761918 101.747507,167.049108 102.151314,167.3984 C102.553536,167.748231 102.878592,168.177903 103.105829,168.660114 C103.36583,169.233694 103.490937,169.859227 103.471543,170.488686 C103.477745,171.227303 103.345,171.9605 103.080229,172.650057 C102.829306,173.310889 102.440308,173.910594 101.9392,174.409143 C101.410851,174.924175 100.782204,175.325015 100.092343,175.586743 C99.2949224,175.883707 98.4489741,176.028833 97.5981714,176.014629 C96.5299685,176.030366 95.4705405,175.819727 94.4896,175.396571 C93.5891764,175.004252 92.7769901,174.434602 92.1014857,173.7216 L92.7853714,172.598857 C92.8515965,172.510714 92.9319136,172.434104 93.0230857,172.372114 C93.1159491,172.312801 93.2237541,172.281093 93.3339429,172.280686 C93.4653627,172.288594 93.59199,172.332913 93.6996571,172.408686 C93.8349714,172.496457 93.9885714,172.602514 94.1604571,172.734171 C94.3323429,172.865829 94.5261714,173.008457 94.7456,173.162057 C94.9828432,173.327848 95.2350641,173.471099 95.4989714,173.589943 C96.1817815,173.900353 96.9250083,174.055244 97.6749714,174.043429 C98.1866831,174.053117 98.696281,173.975193 99.1817143,173.813029 C99.5955025,173.673463 99.9763463,173.450682 100.3008,173.1584 C100.606587,172.875758 100.847403,172.53013 101.006629,172.145371 C101.173521,171.729287 101.256784,171.284392 101.251657,170.836114 C101.270636,170.37322 101.142618,169.916195 100.885943,169.530514 C100.633865,169.182452 100.309499,168.893019 99.9350857,168.682057 C99.5100296,168.437718 99.0585051,168.24263 98.5892571,168.100571 L97.0496,167.610514 C96.5268796,167.442842 96.0130003,167.248764 95.5099429,167.029029 C95.015604,166.817201 94.558684,166.526995 94.1568,166.1696 C93.7519113,165.801489 93.4280893,165.35312 93.2059429,164.853029 C92.434211,163.039254 92.8521572,160.937913 94.2592,159.557486 C94.7507435,159.090117 95.3299556,158.724691 95.9634286,158.482286 C96.7035041,158.201284 97.4905772,158.064726 98.2820571,158.08 C99.1953736,158.068822 100.102912,158.226277 100.959086,158.544457 C101.749618,158.847672 102.47191,159.305165 103.083886,159.890286 L102.5024,161.020343 Z M111.645257,175.828114 L109.271771,175.828114 L109.271771,158.273829 L111.645257,158.273829 L111.645257,175.828114 Z M132.856686,158.273829 L125.706971,175.828114 L123.574857,175.828114 L116.425143,158.273829 L118.3232,158.273829 C118.508132,158.26478 118.690447,158.32038 118.838857,158.431086 C118.967743,158.539301 119.068188,158.677414 119.131429,158.833371 L124.075886,171.220114 C124.1856,171.498057 124.288,171.797943 124.3904,172.123429 C124.4928,172.448914 124.584229,172.792686 124.664686,173.154743 C124.745143,172.789029 124.832914,172.452571 124.920686,172.123429 C125.008457,171.794286 125.110857,171.4944 125.216914,171.220114 L130.1504,158.837029 C130.210426,158.68538 130.310235,158.552723 130.439314,158.453029 C130.585564,158.333374 130.76971,158.269831 130.958629,158.273829 L132.856686,158.273829 Z M148.447086,173.889829 L148.447086,175.824457 L137.596343,175.824457 L137.596343,158.270171 L148.406857,158.270171 L148.406857,160.208457 L139.969829,160.208457 L139.969829,166.034286 L146.801371,166.034286 L146.801371,167.895771 L139.969829,167.895771 L139.969829,173.886171 L148.447086,173.889829 Z M171.402971,169.325714 L168.649143,162.186971 C168.568686,161.974857 168.480914,161.729829 168.393143,161.455543 C168.305371,161.181257 168.2176,160.874057 168.133486,160.555886 C167.993973,161.117732 167.818059,161.669907 167.606857,162.208914 L164.853029,169.325714 L171.402971,169.325714 Z M176.351086,175.842743 L174.522514,175.842743 C174.337181,175.850437 174.154923,175.793562 174.006857,175.681829 C173.877187,175.574347 173.776586,175.436021 173.714286,175.279543 L172.072229,171.044571 L164.205714,171.044571 L162.567314,175.279543 C162.511468,175.433527 162.413984,175.568991 162.285714,175.670857 C162.139269,175.786786 161.956771,175.847619 161.770057,175.842743 L159.941486,175.842743 L166.955886,158.288457 L169.325714,158.288457 L176.351086,175.842743 Z M190.090971,161.038629 C190.032257,161.146002 189.951196,161.239534 189.853257,161.312914 C189.761822,161.375303 189.653053,161.407294 189.5424,161.404343 C189.360653,161.390293 189.188518,161.317071 189.052343,161.195886 C188.824937,161.031684 188.589359,160.879107 188.346514,160.738743 C188.023626,160.552026 187.683076,160.397676 187.329829,160.277943 C186.865769,160.128581 186.379943,160.058118 185.892571,160.069486 C185.415564,160.060599 184.940566,160.133581 184.488229,160.285257 C184.115185,160.409661 183.770765,160.607361 183.4752,160.866743 C183.205894,161.103393 182.994455,161.398658 182.857143,161.729829 C182.715197,162.069022 182.644252,162.433702 182.648686,162.801371 C182.63327,163.236496 182.761816,163.664555 183.0144,164.0192 C183.274646,164.356633 183.600602,164.637802 183.972571,164.845714 C184.399892,165.088401 184.850831,165.286912 185.3184,165.438171 L186.858057,165.961143 C187.384686,166.140343 187.896686,166.326857 188.397714,166.564571 C188.888694,166.779613 189.344779,167.066823 189.750857,167.416686 C190.150941,167.768508 190.475637,168.197705 190.705371,168.6784 C190.961978,169.253068 191.086928,169.877814 191.071086,170.506971 C191.076034,171.245814 190.94205,171.979002 190.676114,172.668343 C190.424263,173.328502 190.033948,173.927068 189.531429,174.423771 C189.004335,174.940385 188.375337,175.341449 187.684571,175.601371 C186.887151,175.898335 186.041203,176.043461 185.1904,176.029257 C184.122227,176.044663 183.062868,175.834038 182.081829,175.4112 C181.18202,175.019687 180.370879,174.449898 179.697371,173.736229 L180.370286,172.617143 C180.434614,172.527332 180.515252,172.450415 180.608,172.3904 C180.700863,172.331086 180.808668,172.299379 180.918857,172.298971 C181.050277,172.306879 181.176904,172.351199 181.284571,172.426971 C181.416229,172.514743 181.569829,172.6208 181.741714,172.752457 C181.9136,172.884114 182.107429,173.026743 182.330514,173.180343 C182.567757,173.346133 182.819978,173.489385 183.083886,173.608229 C183.392311,173.749859 183.714663,173.858944 184.045714,173.933714 C184.442517,174.025421 184.849021,174.068405 185.256229,174.061714 C185.769136,174.071389 186.279933,173.993471 186.766629,173.831314 C187.179955,173.688994 187.560502,173.465142 187.885714,173.173029 C188.192136,172.892378 188.433101,172.547786 188.591543,172.163657 C188.756718,171.747075 188.839917,171.302521 188.836571,170.8544 C188.85283,170.391827 188.725041,169.935619 188.470857,169.5488 C188.218779,169.200738 187.894414,168.911305 187.52,168.700343 C187.094944,168.456004 186.643419,168.260916 186.174171,168.118857 L184.634514,167.6288 C184.111543,167.460571 183.595886,167.263086 183.0912,167.047314 C182.596861,166.835487 182.139941,166.545281 181.738057,166.187886 C181.333168,165.819775 181.009346,165.371406 180.7872,164.871314 C180.527613,164.253814 180.402926,163.587987 180.421486,162.9184 C180.421454,162.300168 180.545827,161.688251 180.7872,161.119086 C181.031709,160.539478 181.389839,160.014718 181.840457,159.575771 C182.332798,159.108527 182.911731,158.742036 183.544686,158.496914 C184.286521,158.217701 185.074444,158.08121 185.866971,158.094629 C186.779495,158.082522 187.686226,158.241293 188.540343,158.562743 C189.332035,158.863644 190.054763,159.321413 190.665143,159.908571 L190.090971,161.038629 Z M205.816686,161.038629 C205.75572,161.14442 205.675023,161.237531 205.578971,161.312914 C205.486195,161.375362 205.376253,161.407322 205.264457,161.404343 C205.083091,161.388747 204.911424,161.315724 204.7744,161.195886 C204.548877,161.030781 204.314468,160.878171 204.072229,160.738743 C203.748998,160.552693 203.408515,160.398373 203.055543,160.277943 C202.590288,160.128311 202.103215,160.057846 201.614629,160.069486 C201.138821,160.060656 200.665034,160.133642 200.213943,160.285257 C199.840162,160.410467 199.494695,160.608054 199.197257,160.866743 C198.929001,161.104341 198.717747,161.399346 198.5792,161.729829 C198.438907,162.069521 198.368029,162.433859 198.370743,162.801371 C198.355601,163.236461 198.484122,163.664434 198.736457,164.0192 C198.996292,164.355635 199.320838,164.63666 199.690971,164.845714 C200.118629,165.08773 200.569498,165.286211 201.0368,165.438171 L202.580114,165.961143 C203.103086,166.140343 203.618743,166.326857 204.119771,166.564571 C204.608055,166.778933 205.06165,167.064896 205.4656,167.413029 C205.867002,167.7645 206.192961,168.193721 206.423771,168.674743 C206.681812,169.248952 206.806828,169.874028 206.789486,170.503314 C206.795365,171.243093 206.662639,171.977428 206.398171,172.668343 C206.14629,173.327614 205.757382,173.925933 205.257143,174.423771 C204.72805,174.939638 204.098029,175.340561 203.406629,175.601371 C202.610469,175.898303 201.765724,176.043436 200.916114,176.029257 C199.847911,176.044995 198.788483,175.834356 197.807543,175.4112 C196.906127,175.020651 196.093606,174.450766 195.419429,173.736229 L196.103314,172.613486 C196.169539,172.525342 196.249857,172.448732 196.341029,172.386743 C196.435273,172.327498 196.544224,172.295826 196.655543,172.295314 C196.786963,172.303222 196.91359,172.347542 197.021257,172.423314 C197.156571,172.511086 197.310171,172.617143 197.482057,172.7488 C197.653943,172.880457 197.847771,173.023086 198.070857,173.176686 C198.3081,173.342476 198.560321,173.485728 198.824229,173.604571 C199.131618,173.745623 199.452697,173.854692 199.7824,173.930057 C200.180411,174.021952 200.588148,174.064936 200.996571,174.058057 C201.508283,174.067745 202.017881,173.989821 202.503314,173.827657 C202.917102,173.688092 203.297946,173.465311 203.6224,173.173029 C203.929261,172.891324 204.170254,172.545442 204.328229,172.16 C204.497201,171.744523 204.580543,171.299206 204.573257,170.850743 C204.591458,170.389083 204.463473,169.933457 204.207543,169.5488 C203.957091,169.199656 203.633939,168.908944 203.260343,168.696686 C202.834015,168.45232 202.381277,168.257238 201.910857,168.1152 L200.3712,167.625143 C199.84848,167.457471 199.3346,167.263393 198.831543,167.043657 C198.337204,166.831829 197.880284,166.541624 197.4784,166.184229 C197.074671,165.815905 196.752086,165.367526 196.5312,164.867657 C195.760681,163.054394 196.176909,160.9544 197.5808,159.572114 C198.072343,159.104746 198.651556,158.73932 199.285029,158.496914 C200.025104,158.215913 200.812177,158.079354 201.603657,158.094629 C202.516974,158.08345 203.424512,158.240906 204.280686,158.559086 C205.071218,158.8623 205.79351,159.319794 206.405486,159.904914 L205.816686,161.038629 Z M223.400229,173.908114 L223.400229,175.842743 L212.586057,175.842743 L212.586057,158.288457 L223.396571,158.288457 L223.396571,160.226743 L214.9632,160.226743 L214.9632,166.034286 L221.794743,166.034286 L221.794743,167.895771 L214.9632,167.895771 L214.9632,173.886171 L223.400229,173.908114 Z M241.031314,160.288914 L235.362743,160.288914 L235.362743,175.842743 L233.000229,175.842743 L233.000229,160.274286 L227.306057,160.274286 L227.306057,158.277486 L241.045943,158.277486 L241.031314,160.288914 Z M254.979657,161.020343 C254.92109,161.128844 254.840048,161.223601 254.741943,161.298286 C254.650508,161.360674 254.541738,161.392665 254.431086,161.389714 C254.250206,161.372189 254.079105,161.299408 253.941029,161.181257 C253.750857,161.042286 253.5168,160.888686 253.2352,160.720457 C252.912977,160.533421 252.572268,160.380225 252.218514,160.263314 C251.754455,160.113953 251.268629,160.04349 250.781257,160.054857 C250.305638,160.044485 249.831794,160.116242 249.380571,160.266971 C249.005947,160.390292 248.660123,160.588083 248.363886,160.848457 C248.095347,161.0858 247.884043,161.380875 247.745829,161.711543 C247.60418,162.050826 247.533248,162.415444 247.537371,162.783086 C247.52251,163.219273 247.650967,163.648318 247.903086,164.004571 C248.163331,164.342005 248.489287,164.623173 248.861257,164.831086 C249.289327,165.07228 249.740112,165.270723 250.207086,165.423543 L251.746743,165.942857 C252.273371,166.122057 252.785371,166.308571 253.2864,166.546286 C253.775512,166.76274 254.23019,167.04984 254.635886,167.3984 C255.038107,167.748231 255.363164,168.177903 255.5904,168.660114 C255.847007,169.234782 255.971956,169.859528 255.956114,170.488686 C255.960512,171.227147 255.827828,171.960013 255.5648,172.650057 C255.311604,173.310605 254.921497,173.910098 254.420114,174.409143 C253.898367,174.923634 253.275787,175.324576 252.591543,175.586743 C251.794122,175.883707 250.948174,176.028833 250.097371,176.014629 C249.029168,176.030366 247.969741,175.819727 246.9888,175.396571 C246.088376,175.004252 245.27619,174.434602 244.600686,173.7216 L245.288229,172.598857 C245.352556,172.509046 245.433195,172.43213 245.525943,172.372114 C245.618806,172.312801 245.726611,172.281093 245.8368,172.280686 C245.96822,172.288594 246.094847,172.332913 246.202514,172.408686 C246.334171,172.496457 246.487771,172.602514 246.663314,172.734171 C246.838857,172.865829 247.029029,173.008457 247.248457,173.162057 C247.4857,173.327848 247.737921,173.471099 248.001829,173.589943 C248.683482,173.899939 249.425427,174.054824 250.174171,174.043429 C250.685897,174.053333 251.195532,173.975404 251.680914,173.813029 C252.096217,173.674393 252.478437,173.451535 252.803657,173.1584 C253.108298,172.875545 253.347877,172.529903 253.505829,172.145371 C253.674801,171.729895 253.758143,171.284578 253.750857,170.836114 C253.769058,170.374454 253.641073,169.918828 253.385143,169.534171 C253.13329,169.184939 252.808933,168.894265 252.434286,168.682057 C252.00923,168.437718 251.557705,168.24263 251.088457,168.100571 L249.545143,167.610514 C249.022171,167.442286 248.510171,167.2448 248.005486,167.029029 C247.5118,166.81806 247.055952,166.52775 246.656,166.1696 C246.251111,165.801489 245.927289,165.35312 245.705143,164.853029 C245.221782,163.648986 245.221782,162.304843 245.705143,161.1008 C245.946969,160.519734 246.305447,159.994465 246.7584,159.557486 C247.248023,159.089445 247.826186,158.723897 248.458971,158.482286 C249.200336,158.201348 249.988593,158.0648 250.781257,158.08 C251.69336,158.069105 252.599648,158.226558 253.454629,158.544457 C254.245603,158.846791 254.968061,159.304389 255.579429,159.890286 L254.979657,161.020343 Z" id="Path_7096" fill="#EEEEEE" fill-rule="nonzero"></path>
            </g>
        </g>
    </g>
</svg>