<?xml version="1.0" encoding="UTF-8"?>
<svg width="198px" height="97px" viewBox="0 0 198 97" version="1.1" xmlns="http://www.w3.org/2000/svg" xmlns:xlink="http://www.w3.org/1999/xlink">
    <title>GBV logo-02</title>
    <defs>
        <filter id="filter-1">
            <feColorMatrix in="SourceGraphic" type="matrix" values="0 0 0 0 0.415686 0 0 0 0 0.435294 0 0 0 0 0.509804 0 0 0 1.000000 0"></feColorMatrix>
        </filter>
    </defs>
    <g id="GBV" stroke="none" stroke-width="1" fill="none" fill-rule="evenodd">
        <g filter="url(#filter-1)" id="GBV-logo-02">
            <g>
                <path d="M139.388176,35.6357511 C139.01427,35.2682189 138.570258,34.970794 138.071009,34.7498498 C137.565386,34.5289056 137.023648,34.416309 136.460665,34.416309 L121.706266,34.416309 C121.143283,34.416309 120.599421,34.5289056 120.095923,34.7498498 C119.594549,34.970794 119.152661,35.2682189 118.778755,35.6357511 C118.402725,36.0054077 118.103176,36.4472961 117.888605,36.950794 C117.674034,37.4542918 117.565687,37.99603 117.565687,38.5590129 L117.565687,57.9787339 C117.565687,58.5417167 117.674034,59.0834549 117.888605,59.5869528 C118.103176,60.0883262 118.402725,60.5344635 118.776631,60.9083691 C119.152661,61.2843991 119.596674,61.5839485 120.098047,61.7963948 C120.601545,62.0109657 121.143283,62.1193133 121.706266,62.1193133 L136.460665,62.1193133 C137.023648,62.1193133 137.565386,62.0109657 138.068884,61.7963948 C138.570258,61.581824 139.016395,61.2822747 139.3903,60.9083691 C139.76633,60.5323391 140.063755,60.0883262 140.278326,59.5869528 C140.492897,59.0813305 140.601245,58.5417167 140.601245,57.9787339 L140.601245,47.2374464 L128.827468,47.2374464 L128.827468,51.6350858 L136.203605,51.6350858 L136.203605,57.7237983 L121.961202,57.7237983 L121.961202,38.8139485 L136.203605,38.8139485 L136.203605,42.3214378 L140.601245,42.3214378 L140.601245,38.5590129 C140.601245,37.9981545 140.492897,37.4564163 140.276202,36.950794 C140.063755,36.4472961 139.764206,36.0054077 139.388176,35.6357511 Z" id="Path" fill="#F1D050" fill-rule="nonzero"></path>
                <path d="M168.002575,49.5616094 C167.658412,49.0241202 167.233519,48.5758584 166.740644,48.2295708 C166.409227,47.9980043 166.050193,47.7983047 165.66779,47.63897 C166.481459,47.1545923 167.108176,46.4853863 167.533069,45.6419742 C168.034442,44.6434764 168.289378,43.3433047 168.289378,41.781824 L168.289378,41.2889485 C168.289378,36.7277253 165.98221,34.416309 161.435858,34.416309 L147.072361,34.416309 L147.072361,62.1193133 L162.215536,62.1193133 C166.764013,62.1193133 169.07118,59.8121459 169.07118,55.265794 L169.07118,53.8997639 C169.07118,52.9862446 168.979828,52.1598283 168.797124,51.448133 C168.612296,50.7279399 168.344614,50.0927253 168.002575,49.5616094 Z M151.393519,45.9627682 L151.393519,38.7353433 L161.323262,38.7353433 C162.268648,38.7353433 162.952725,38.9520386 163.356373,39.3769313 C163.76427,39.806073 163.970343,40.5135193 163.970343,41.4780258 L163.970343,43.2604506 C163.970343,44.1782189 163.783391,44.8601717 163.415858,45.2829399 C163.0547,45.6993348 162.436481,45.9287768 161.58882,45.9627682 L151.393519,45.9627682 L151.393519,45.9627682 Z M164.745773,52.9692489 L164.745773,55.0745923 C164.745773,56.0263519 164.5397,56.7274249 164.133927,57.1565665 C163.730279,57.5814592 163.046202,57.7981545 162.100815,57.7981545 L151.395644,57.7981545 L151.395644,50.2669313 L162.100815,50.2669313 C163.048326,50.2669313 163.734528,50.4772532 164.136052,50.8915236 C164.5397,51.3079185 164.745773,52.006867 164.745773,52.9692489 Z" id="Shape" fill="#F1D050" fill-rule="nonzero"></path>
                <polygon id="Path" fill="#F1D050" fill-rule="nonzero" points="193.232704 34.4141845 184.932425 56.3259013 176.649142 34.4141845 171.930708 34.4141845 182.614635 62.1193133 187.250215 62.1193133 197.934142 34.4141845"></polygon>
                <path d="M95.0166309,55.151073 L95.0166309,55.0066094 C95.0166309,54.5987124 94.7999356,54.2226824 94.4472747,54.0166094 L71.8812232,40.8704292 L71.8812232,35.2767167 L71.8812232,14.9264807 C71.8812232,14.9222318 71.8790987,14.9179828 71.8790987,14.9137339 L71.8790987,14.762897 C71.8790987,14.355 71.6624034,13.9768455 71.3097425,13.772897 L48.189206,0.316545064 C47.8344206,0.110472103 47.3967811,0.108347639 47.0419957,0.312296137 L23.8938412,13.6093133 C23.5390558,13.8132618 23.3181116,14.1935408 23.3181116,14.6035622 L23.3181116,14.762897 C23.3181116,14.7650215 23.3181116,14.7650215 23.3181116,14.7671459 L23.3181116,40.70897 L0.758433476,53.6851931 C0.403648069,53.8891416 0.182703863,54.2694206 0.184813142,54.6794421 L0.184813142,54.8324034 C0.184813142,54.8366524 0.184813142,54.8387768 0.184813142,54.8430258 L0.184813142,81.6091416 C0.184813142,82.0170386 0.401523605,82.3930687 0.754184549,82.5991416 L23.8895923,96.0639914 C23.9108369,96.0767382 23.9320815,96.0873605 23.9533262,96.0979828 L23.9533262,96.0979828 C23.9830687,96.1128541 24.0128112,96.1256009 24.0446781,96.1362232 C24.0510515,96.1383476 24.0553004,96.1404721 24.0616738,96.1425966 C24.1211588,96.1659657 24.1806438,96.1808369 24.2422532,96.1935837 C24.2443777,96.1935837 24.2465021,96.1957082 24.2486266,96.1957082 C24.2507511,96.1957082 24.255,96.1957082 24.2571245,96.1957082 C24.3272318,96.2084549 24.3973391,96.2169528 24.4674464,96.2169528 C24.4738197,96.2169528 24.4801931,96.2148283 24.4844421,96.2148283 C24.4865665,96.2148283 24.488691,96.2148283 24.4908155,96.2148283 C24.4971888,96.2148283 24.5014378,96.2127039 24.5078112,96.2127039 C24.5545494,96.2105794 24.5991631,96.2084549 24.6459013,96.1999571 C24.6565236,96.1978326 24.6650215,96.1957082 24.6756438,96.1935837 C24.7160086,96.1850858 24.7584979,96.176588 24.7988627,96.1659657 C24.809485,96.1617167 24.8201073,96.1574678 24.8307296,96.1553433 C24.86897,96.1425966 24.9072103,96.1298498 24.9433262,96.1128541 C24.9496996,96.1107296 24.956073,96.1064807 24.9624464,96.1022318 C24.9985622,96.0852361 25.0368026,96.0661159 25.070794,96.0448712 C25.0750429,96.0427468 25.0792918,96.0384979 25.0835408,96.0363734 L47.6049785,83.0856438 L70.1625322,96.2127039 C70.1943991,96.231824 70.2262661,96.2466953 70.2602575,96.2615665 C70.2687554,96.2658155 70.2772532,96.2721888 70.2878755,96.2764378 C70.2984979,96.2806867 70.3091202,96.2849356 70.3197425,96.2891845 C70.3324893,96.2934335 70.3452361,96.2955579 70.3579828,96.2998069 C70.3813519,96.3083047 70.4025966,96.3168026 70.4238412,96.323176 C70.4408369,96.3274249 70.4578326,96.3295494 70.4748283,96.3337983 C70.5045708,96.3401717 70.5364378,96.3486695 70.5661803,96.3529185 C70.5937983,96.3571674 70.6192918,96.3592918 70.6469099,96.3614163 C70.6787768,96.3635408 70.7106438,96.3699142 70.7446352,96.3699142 C70.9422103,96.3699142 71.1397854,96.318927 71.3161159,96.2169528 L94.4451502,82.9156867 C94.7999356,82.7117382 95.0208798,82.3250858 95.0208798,81.9150644 L95.0208798,55.1680687 C95.0208798,55.1659442 95.0208798,55.1659442 95.0208798,55.1638197 C95.0208798,55.1616953 95.0208798,55.1595708 95.0208798,55.1574464 C95.0166309,55.1574464 95.0166309,55.1531974 95.0166309,55.151073 Z M69.588927,35.9353004 L69.588927,41.0318884 L48.7585622,53.0117382 L48.7585622,28.8863305 L69.588927,16.9086052 L69.588927,35.9353004 Z M46.4556438,52.9989914 L25.6167811,40.8725536 L25.6125322,16.7598927 L46.4556438,28.8905794 L46.4556438,52.9989914 Z M45.3126824,54.9959871 L24.4759442,66.9779614 L3.62433476,54.8430258 L24.461073,42.858927 L45.3126824,54.9959871 Z M49.9100215,55.0108584 L70.7403863,43.0267597 L91.5834979,55.1553219 L70.7467597,67.1372961 L49.9100215,55.0108584 Z M47.6092275,26.9020815 L26.7597425,14.7692704 L47.5986052,2.78517167 L68.4480901,14.9179828 L47.6092275,26.9020815 Z M2.47712446,56.8357725 L23.3181116,68.9643348 L23.3181116,92.9176609 L2.50049356,80.8018455 L2.47712446,56.8357725 Z M25.6125322,92.9282833 L25.6125322,68.9898283 L46.4556438,56.9972318 L46.4556438,80.9399356 L25.6125322,92.9282833 Z M48.7585622,80.9505579 L48.7585622,56.9993562 L69.5910515,69.1215451 L69.5910515,93.0684979 L48.7585622,80.9505579 Z M92.7243348,81.092897 L71.8833476,93.0833691 L71.8833476,69.1406652 L92.7243348,57.1544421 L92.7243348,81.092897 Z" id="Shape" fill="#F1D050" fill-rule="nonzero"></path>
            </g>
        </g>
    </g>
</svg>