<?xml version="1.0" encoding="UTF-8"?>
<svg width="257px" height="35px" viewBox="0 0 257 35" version="1.1" xmlns="http://www.w3.org/2000/svg" xmlns:xlink="http://www.w3.org/1999/xlink">
    <title>Marshland_Logo_Style_2_Black</title>
    <defs>
        <filter id="filter-1">
            <feColorMatrix in="SourceGraphic" type="matrix" values="0 0 0 0 0.415686 0 0 0 0 0.435294 0 0 0 0 0.509804 0 0 0 1.000000 0"></feColorMatrix>
        </filter>
    </defs>
    <g id="Marshland" stroke="none" stroke-width="1" fill="none" fill-rule="evenodd">
        <g filter="url(#filter-1)" id="Marshland_Logo_Style_2_Black">
            <g>
                <g id="Group" transform="translate(67.803962, 1.868613)" fill="#000000" fill-rule="nonzero">
                    <path d="M27.4953076,6.83378519 L27.4953076,25.5733055 C27.4953076,26.4008342 27.7088634,26.9614181 28.1092805,27.2550574 C28.5363921,27.575391 29.3105318,27.7622523 30.4583942,27.8423358 L30.4583942,28.9901981 C26.8546403,28.8567258 23.2775808,28.8567258 19.7005214,28.9901981 L19.7005214,27.8423358 C20.8216893,27.7622523 21.6225235,27.575391 22.049635,27.2550574 C22.4767466,26.9614181 22.6903024,26.4008342 22.6903024,25.5733055 L22.6903024,7.68800834 L14.8154327,28.9635036 L14.2815433,28.9635036 L5.63253389,7.68800834 L5.63253389,25.5733055 C5.63253389,26.3207508 5.95286757,26.8813347 6.56684046,27.1749739 C7.18081335,27.4953076 8.24859228,27.7088634 9.74348279,27.8156413 L9.74348279,28.9635036 C6.43336809,28.8300313 3.20333681,28.8300313 0.0266944734,28.9635036 L0.0266944734,27.8156413 C1.49489051,27.7088634 2.5092805,27.4686131 3.09655892,27.1749739 C3.68383733,26.8546403 3.97747654,26.3207508 3.97747654,25.5733055 L3.97747654,7.28759124 C3.97747654,5.71261731 2.82961418,4.83169969 0.533889468,4.67153285 L0.533889468,3.52367049 C3.23003128,3.65714286 5.95286757,3.65714286 8.64900938,3.52367049 L15.9899896,21.4890511 L22.5835245,3.52367049 C25.1728884,3.60375391 27.7889468,3.60375391 30.4050052,3.52367049 L30.4050052,4.67153285 C29.2838373,4.75161627 28.5096976,4.93847758 28.082586,5.23211679 C27.6821689,5.525756 27.4953076,6.05964546 27.4953076,6.83378519 Z" id="Path"></path>
                    <path d="M49.0377477,14.4417101 L49.0377477,24.7991658 C49.0377477,25.6800834 49.2513034,26.3474453 49.6517205,26.7478624 C50.0521376,27.1482795 50.692805,27.3618352 51.5470282,27.3885297 L51.5470282,28.589781 C49.4114703,28.6965589 47.3826903,28.9635036 45.4339937,29.4440042 C44.9801877,29.2838373 44.659854,28.9901981 44.4996872,28.5363921 L44.6865485,25.5733055 L44.4462982,25.5733055 C43.9124088,26.5076121 43.0848801,27.3618352 41.9637122,28.1893639 C40.8158498,29.0168926 39.4277372,29.4440042 37.7993743,29.4440042 C36.2777894,29.4440042 34.9430657,29.0168926 33.7952033,28.1893639 C32.6740355,27.3351408 32.086757,26.0271116 32.086757,24.2385819 C32.086757,22.3699687 32.9676747,20.8216893 34.7562044,19.620438 C36.5447341,18.3924922 39.7480709,17.2713243 44.3929093,16.2569343 L44.3929093,14.3883212 C44.3929093,12.4396246 44.206048,11.1049009 43.8323253,10.4108446 C43.4586027,9.69009385 42.684463,9.31637122 41.4832117,9.31637122 C40.3086548,9.31637122 39.4277372,9.6367049 38.8938478,10.3040667 C38.3599583,10.9714286 38.0396246,11.6921794 37.9862357,12.4396246 C37.9061522,13.2137643 37.7192909,13.9078206 37.3455683,14.548488 C36.9985401,15.2158498 36.3578728,15.5361835 35.4769552,15.5361835 C34.0621481,15.5361835 33.3680918,14.8688217 33.3680918,13.5074035 C33.3680918,12.012513 34.2757039,10.7311783 36.0642336,9.69009385 C37.8527633,8.64900938 40.1217935,8.11511992 42.8713243,8.11511992 C45.0602711,8.11511992 46.635245,8.56892596 47.5695516,9.50323253 C48.5572471,10.3841502 49.0377477,12.0392075 49.0377477,14.4417101 Z M39.8548488,27.4152242 C40.8959333,27.4152242 41.8302398,27.0148071 42.6577685,26.1605839 C43.4852972,25.3330553 44.0725756,24.5322211 44.4196038,23.7313869 L44.4196038,17.3781022 C39.4010428,18.5793535 36.8650678,20.7683003 36.8650678,23.8915537 C36.8650678,24.9593326 37.1320125,25.8402503 37.6925965,26.4542231 C38.2531804,27.0948905 38.9739312,27.4152242 39.8548488,27.4152242 Z" id="Shape"></path>
                    <path d="M66.0421272,7.95495308 C67.1099062,7.95495308 67.9641293,8.19520334 68.6047967,8.70239833 C69.245464,9.20959333 69.5657977,9.87695516 69.5657977,10.7044838 C69.5657977,11.3451512 69.3789364,11.8523462 69.0052138,12.2260688 C68.6314911,12.6264859 68.1242961,12.8133472 67.5370177,12.8133472 C66.9497393,12.8133472 66.2823775,12.4930136 65.5883212,11.8790407 C64.8675704,11.2650678 64.2535975,10.9447341 63.6930136,10.9447341 C62.758707,10.9447341 61.9845673,11.4252346 61.3972888,12.3862357 C60.8100104,13.3205422 60.4629823,14.1747654 60.3295099,14.9222106 L60.3295099,26.2673618 C60.3295099,27.068196 61.237122,27.5486966 63.0256517,27.7889468 L63.0256517,28.9368092 C59.6888425,28.7766423 56.4054223,28.7766423 53.2020855,28.9368092 L53.2020855,27.7889468 C54.8304484,27.62878 55.6579771,27.0948905 55.6579771,26.2673618 L55.6579771,13.1603754 C55.6579771,12.4396246 55.4711157,11.9324296 55.0706986,11.6654849 C54.6702815,11.3985401 54.0563087,11.3184567 53.2020855,11.4252346 L53.2020855,10.2773723 C55.5511992,9.85026069 57.6333681,9.07612096 59.4218978,7.9282586 C59.8757039,8.08842544 60.1960375,8.40875912 60.3562044,8.88925965 L59.4485923,13.4807091 L59.715537,13.4807091 C61.1303441,9.82356621 63.2392075,7.95495308 66.0421272,7.95495308 Z" id="Path"></path>
                    <path d="M85.9828989,23.4644421 C85.9828989,25.1728884 85.315537,26.5876955 83.9808133,27.7355579 C82.6460897,28.8834202 81.1245047,29.4706986 79.3893639,29.4706986 C78.4283629,29.4706986 77.3338895,29.2304484 76.1593326,28.7499479 C74.9847758,28.2694473 74.2373306,28.0291971 73.9436913,28.0291971 C73.4098019,28.0291971 73.0894682,28.3495308 73.0093848,28.9635036 L71.7013556,28.9635036 L71.2475495,23.3309698 L72.3954119,23.3309698 C72.7691345,24.6923879 73.6500521,25.8402503 75.0114703,26.7478624 C76.3728884,27.6554745 77.6809176,28.135975 78.9622523,28.135975 C79.8698644,28.135975 80.6173097,27.8690302 81.1511992,27.3084463 C81.6850886,26.7745568 81.9787278,26.053806 81.9787278,25.146194 C81.9787278,24.131804 81.6050052,23.3042753 80.9109489,22.6903024 C80.1635036,22.0763295 78.9622523,21.3288843 77.2805005,20.4746611 C76.5063608,20.1009385 75.7589155,19.7005214 75.0648592,19.3001043 C74.5042753,18.9530761 73.8636079,18.4992701 73.1962461,17.9119917 C71.8615224,16.7908238 71.2208551,15.3760167 71.2208551,13.7209593 C71.2208551,12.1192909 71.8081335,10.7845673 73.0093848,9.71678832 C74.2106361,8.64900938 75.7322211,8.11511992 77.5474453,8.11511992 C78.5084463,8.11511992 79.4694473,8.30198123 80.4037539,8.70239833 C81.311366,9.07612096 81.8986444,9.26298227 82.1122002,9.26298227 C82.6460897,9.26298227 83.0198123,8.99603754 83.1799791,8.4354536 L84.3812304,8.4354536 L84.7549531,13.8010428 L83.6871741,13.8010428 C83.0998957,12.3328467 82.2990615,11.2383733 81.2579771,10.4909281 C80.1901981,9.74348279 79.1224192,9.34306569 78.0279458,9.34306569 C77.1203337,9.34306569 76.3995829,9.61001043 75.8656934,10.1438999 C75.331804,10.6777894 75.0648592,11.3718457 75.0648592,12.2260688 C75.0648592,13.1069864 75.3584984,13.8544317 75.9724713,14.4417101 C76.5330553,15.0022941 77.4940563,15.6429614 78.82878,16.3103233 C78.8554745,16.3370177 79.2025026,16.4971846 79.84317,16.8175182 C80.4838373,17.1378519 80.8842544,17.3247132 81.0711157,17.4314911 C81.1778936,17.4848801 81.5516163,17.6984359 82.2189781,18.0721585 C82.7261731,18.3391032 83.1265902,18.6327424 83.4202294,18.8729927 L84.4346194,19.7539103 C84.8350365,20.1009385 85.1553702,20.4746611 85.3422315,20.8216893 C85.7426486,21.7293014 85.9828989,22.610219 85.9828989,23.4644421 Z" id="Path"></path>
                    <path d="M107.658811,15.055683 L107.658811,26.2940563 C107.658811,27.0948905 108.48634,27.6020855 110.168092,27.8156413 L110.168092,28.9635036 C106.964755,28.8834202 103.761418,28.8834202 100.531387,28.9635036 L100.531387,27.8156413 C102.186444,27.6821689 103.040667,27.1749739 103.040667,26.2940563 L103.040667,15.1090719 C103.040667,11.8256517 101.946194,10.1972888 99.7572471,10.1972888 C98.5559958,10.1972888 97.5149114,10.6777894 96.6072993,11.6120959 C95.7263816,12.5464025 95.1657977,13.5074035 94.9522419,14.4684046 L94.9522419,26.3207508 C94.9522419,27.121585 95.7797706,27.62878 97.4615224,27.8423358 L97.4615224,28.9901981 C94.2581856,28.8300313 91.0548488,28.8300313 87.8248175,28.9901981 L87.8248175,27.8423358 C89.4531804,27.6821689 90.2807091,27.1749739 90.2807091,26.3207508 L90.2807091,5.28550574 C90.2807091,3.95078206 89.4798749,3.39019812 87.9049009,3.60375391 L87.9049009,2.45589155 C90.2540146,2.00208551 92.3895725,1.22794578 94.2581856,0.106777894 C94.6586027,0.266944734 94.9789364,0.587278415 95.2191867,1.04108446 C95.0590198,1.94869656 94.9789364,3.76392075 94.9522419,6.54014599 L94.9522419,10.3040667 L94.6052138,12.8400417 C95.0590198,11.9324296 95.8064651,10.9714286 96.7941606,9.93034411 C97.3547445,9.34306569 98.1021898,8.86256517 99.0098019,8.48884254 C99.917414,8.14181439 100.851721,7.95495308 101.839416,7.95495308 C103.494473,7.95495308 104.882586,8.48884254 106.003754,9.55662148 C107.098227,10.6244004 107.658811,12.4663191 107.658811,15.055683 Z" id="Path"></path>
                    <path d="M118.069656,6.54014599 L118.069656,26.2940563 C118.069656,27.0948905 118.897185,27.6020855 120.578936,27.8156413 L120.578936,28.9635036 C117.3756,28.8033368 114.172263,28.8033368 110.942231,28.9635036 L110.942231,27.8156413 C112.570594,27.6554745 113.398123,27.121585 113.398123,26.2940563 L113.398123,5.25881126 C113.398123,3.92408759 112.597289,3.36350365 111.022315,3.57705944 L111.022315,2.42919708 C113.371429,1.97539103 115.506986,1.2012513 117.3756,0.0800834202 C117.776017,0.240250261 118.09635,0.560583942 118.336601,1.01438999 C118.176434,1.92200209 118.09635,3.76392075 118.069656,6.54014599 Z" id="Path"></path>
                    <path d="M139.345151,14.4417101 L139.345151,24.7991658 C139.345151,25.6800834 139.558707,26.3474453 139.93243,26.7478624 C140.332847,27.1482795 140.973514,27.3618352 141.827737,27.3885297 L141.827737,28.589781 C139.692179,28.6965589 137.663399,28.9635036 135.714703,29.4440042 C135.260897,29.3105318 134.940563,28.9901981 134.780396,28.5363921 L134.967258,25.5733055 L134.727007,25.5733055 C134.193118,26.4809176 133.365589,27.3618352 132.244421,28.1893639 C131.096559,29.0168926 129.708446,29.4440042 128.080083,29.4440042 C126.558498,29.4440042 125.223775,29.0168926 124.075912,28.1893639 C122.954745,27.3351408 122.367466,26.0271116 122.367466,24.2385819 C122.367466,22.3699687 123.248384,20.8216893 125.036913,19.620438 C126.825443,18.3924922 130.02878,17.2713243 134.673618,16.2569343 L134.673618,14.3883212 C134.673618,12.4396246 134.486757,11.1049009 134.113034,10.4108446 C133.739312,9.69009385 132.965172,9.31637122 131.763921,9.31637122 C130.589364,9.31637122 129.708446,9.6367049 129.174557,10.3040667 C128.640667,10.9714286 128.320334,11.6921794 128.266945,12.4396246 C128.213556,13.2137643 128,13.9078206 127.626277,14.548488 C127.279249,15.2158498 126.638582,15.5361835 125.757664,15.5361835 C124.342857,15.5361835 123.648801,14.8688217 123.648801,13.5074035 C123.648801,12.012513 124.556413,10.7311783 126.344943,9.69009385 C128.133472,8.64900938 130.402503,8.11511992 133.152033,8.11511992 C135.34098,8.11511992 136.915954,8.56892596 137.850261,9.50323253 C138.864651,10.3841502 139.345151,12.0392075 139.345151,14.4417101 Z M130.162252,27.3885297 C131.203337,27.3885297 132.137643,26.9881126 132.965172,26.1605839 C133.792701,25.3330553 134.379979,24.5322211 134.727007,23.7313869 L134.727007,17.3781022 C129.708446,18.5793535 127.172471,20.7683003 127.172471,23.8915537 C127.172471,24.9593326 127.439416,25.8402503 128,26.4542231 C128.560584,27.068196 129.281335,27.3885297 130.162252,27.3885297 Z" id="Shape"></path>
                    <path d="M163.103233,15.055683 L163.103233,26.2940563 C163.103233,27.0948905 163.930761,27.6020855 165.612513,27.8156413 L165.612513,28.9635036 C162.409176,28.8834202 159.205839,28.8834202 155.975808,28.9635036 L155.975808,27.8156413 C157.630865,27.6821689 158.485089,27.1482795 158.485089,26.2940563 L158.485089,15.1090719 C158.485089,11.8256517 157.390615,10.1972888 155.201668,10.1972888 C154.000417,10.1972888 152.959333,10.6777894 152.078415,11.6120959 C151.224192,12.519708 150.663608,13.4807091 150.396663,14.4684046 L150.396663,26.3207508 C150.396663,27.1749739 151.224192,27.6821689 152.905944,27.8423358 L152.905944,28.9901981 C149.702607,28.8834202 146.49927,28.8834202 143.322628,28.9901981 L143.322628,27.8423358 C144.950991,27.6821689 145.778519,27.1749739 145.778519,26.3207508 L145.778519,13.2137643 C145.778519,11.8523462 144.950991,11.2650678 143.269239,11.505318 L143.269239,10.3574557 C145.698436,9.90364964 147.780605,9.12950991 149.489051,8.00834202 C149.889468,8.14181439 150.209802,8.46214807 150.423358,8.96934307 L149.755996,12.8934307 L149.969552,12.8934307 C150.343274,12.065902 151.090719,11.0782065 152.185193,9.98373306 C152.772471,9.39645464 153.519917,8.91595412 154.427529,8.54223149 C155.308446,8.19520334 156.269447,8.00834202 157.257143,8.00834202 C158.9122,8.00834202 160.300313,8.54223149 161.421481,9.61001043 C162.569343,10.6244004 163.103233,12.4663191 163.103233,15.055683 Z" id="Path"></path>
                    <path d="M185.686757,6.54014599 L185.686757,24.8258603 C185.686757,25.7067779 185.900313,26.3741397 186.30073,26.7745568 C186.701147,27.1749739 187.31512,27.3885297 188.169343,27.4152242 L188.169343,28.6164755 C186.06048,28.7232534 184.0317,28.9901981 182.056309,29.4706986 C181.575808,29.2838373 181.282169,28.9901981 181.202086,28.5630865 L181.629197,25.9737226 L181.335558,25.9737226 C180.935141,26.8813347 180.294473,27.7088634 179.360167,28.4029197 C178.452555,29.096976 177.277998,29.4440042 175.809802,29.4440042 C173.380605,29.4440042 171.271741,28.4830031 169.483212,26.5876955 C167.694682,24.6923879 166.813764,22.0763295 166.813764,18.7395203 C166.813764,15.4561001 167.721376,12.8667362 169.509906,10.9447341 C171.32513,9.04942649 173.433994,8.08842544 175.836496,8.08842544 C178.052138,8.08842544 179.787278,8.94264859 181.041919,10.6777894 L181.041919,5.28550574 C181.041919,3.95078206 180.241084,3.39019812 178.612722,3.60375391 L178.612722,2.45589155 C181.015224,2.02877998 183.124088,1.25464025 184.966006,0.106777894 C185.419812,0.266944734 185.740146,0.587278415 185.900313,1.04108446 C185.76684,1.94869656 185.686757,3.79061522 185.686757,6.54014599 Z M181.041919,24.0517205 L181.041919,12.1993743 C180.561418,11.4252346 179.920751,10.7311783 179.093222,10.1705944 C178.265693,9.61001043 177.384776,9.34306569 176.423775,9.34306569 C174.955579,9.34306569 173.781022,10.0638165 172.980188,11.4786236 C172.179353,12.8934307 171.752242,14.9222106 171.752242,17.5115746 C171.752242,20.5013556 172.232742,23.0106361 173.193743,25.0127216 C174.154745,26.9881126 175.409385,28.0025026 176.957664,28.0025026 C177.998749,28.0025026 178.879666,27.6020855 179.627112,26.7745568 C180.347862,25.9737226 180.828363,25.0661105 181.041919,24.0517205 Z" id="Shape"></path>
                </g>
                <g id="Group" fill="#000000" fill-rule="nonzero">
                    <path d="M35.0498436,4.00417101 L35.0498436,29.4173097 C35.0498436,30.5918665 34.9430657,31.4460897 34.7562044,32.0333681 C34.5693431,32.6206465 34.1956204,32.9943691 33.608342,33.2079249 C33.0744526,33.3947862 32.2736184,33.5282586 31.2592284,33.5816475 L31.2592284,34.5426486 C32.086757,34.4892596 33.1278415,34.4358707 34.4091762,34.4358707 C35.2367049,34.4358707 36.3578728,34.5159541 37.2387904,34.4892596 L37.2387904,0.480500521 C36.6782065,0.480500521 35.5570386,0.400417101 35.0231491,0.400417101 L23.2241919,12.8934307 L23.2241919,16.3370177 L35.0498436,4.00417101" id="Path"></path>
                    <path d="M46.3949948,34.5693431 L46.3949948,33.608342 C45.3539103,33.5549531 44.5797706,33.4214807 44.0725756,33.2079249 C43.5653806,33.0210636 43.2183525,32.6206465 43.0314911,32.0333681 C42.8446298,31.4460897 42.7645464,30.5918665 42.7645464,29.4173097 L42.7645464,5.36558916 C42.7645464,4.16433785 42.8446298,3.28342023 43.0314911,2.72283629 C43.2183525,2.16225235 43.5653806,1.76183525 44.0725756,1.54827946 C44.5797706,1.33472367 45.3539103,1.22794578 46.3949948,1.17455683 L46.3949948,0.213555787 C45.4873827,0.240250261 44.3395203,0.266944734 42.9781022,0.320333681 C42.2306569,0.347028154 41.1361835,0.347028154 40.3620438,0.347028154 L40.3620438,34.4358707 C41.1361835,34.4358707 42.2306569,34.4358707 42.9781022,34.4625652 C44.3395203,34.4625652 45.4873827,34.5159541 46.3949948,34.5693431 Z" id="Path"></path>
                    <path d="M11.3451512,4.00417101 L11.3451512,29.4173097 C11.3451512,30.5918665 11.4519291,31.4460897 11.6387904,32.0333681 C11.8256517,32.6206465 12.1993743,32.9943691 12.7866528,33.2079249 C13.3205422,33.3947862 14.1213764,33.5282586 15.1357664,33.5816475 L15.1357664,34.5426486 C14.3082377,34.4892596 13.2671533,34.4358707 11.9858186,34.4358707 C11.1582899,34.4358707 10.037122,34.5159541 9.15620438,34.4892596 L9.15620438,0.480500521 C9.71678832,0.480500521 10.8379562,0.400417101 11.3718457,0.400417101 L23.1708029,12.8934307 L23.1708029,16.3370177 L11.3451512,4.00417101" id="Path"></path>
                    <path d="M0,34.5693431 L0,33.608342 C1.04108446,33.5549531 1.81522419,33.4214807 2.32241919,33.2079249 C2.82961418,33.0210636 3.17664234,32.6206465 3.36350365,32.0333681 C3.55036496,31.4460897 3.63044838,30.5918665 3.63044838,29.4173097 L3.63044838,5.36558916 C3.63044838,4.16433785 3.55036496,3.28342023 3.36350365,2.72283629 C3.17664234,2.16225235 2.82961418,1.76183525 2.32241919,1.54827946 C1.81522419,1.33472367 1.04108446,1.22794578 0,1.17455683 L0,0.213555787 C0.907612096,0.240250261 2.05547445,0.266944734 3.4168926,0.320333681 C4.16433785,0.347028154 5.25881126,0.347028154 6.03295099,0.347028154 L6.03295099,34.4358707 C5.25881126,34.4358707 4.16433785,34.4358707 3.4168926,34.4625652 C2.05547445,34.4625652 0.907612096,34.5159541 0,34.5693431 Z" id="Path"></path>
                </g>
            </g>
        </g>
    </g>
</svg>