<?xml version="1.0" encoding="UTF-8"?>
<svg width="190px" height="43px" viewBox="0 0 190 43" version="1.1" xmlns="http://www.w3.org/2000/svg" xmlns:xlink="http://www.w3.org/1999/xlink">
    <title>SkynetTrading</title>
    <defs>
        <filter id="filter-1">
            <feColorMatrix in="SourceGraphic" type="matrix" values="0 0 0 0 0.415686 0 0 0 0 0.435294 0 0 0 0 0.509804 0 0 0 1.000000 0"></feColorMatrix>
        </filter>
    </defs>
    <g id="SkyNet" stroke="none" stroke-width="1" fill="none" fill-rule="evenodd">
        <g id="SkynetTrading">
            <g filter="url(#filter-1)" id="Skynet-Trading">
                <g>
                    <g id="SkyNetLogo" fill="#20354F" fill-rule="nonzero">
                        <path d="M29.8859636,18.0081675 C28.8153489,16.9340226 27.277748,16.6951125 25.9905381,17.4029023 C24.7033282,18.1106921 23.920177,19.6256991 24.0064687,21.2410874 C24.0927603,22.8564756 25.0314893,24.253904 26.384686,24.7813937 C27.7378827,25.3088833 29.2388753,24.8624829 30.1873665,23.6504634 C30.4194596,23.3477181 30.6093985,23.0067573 30.7506442,22.6393193 L97,22.6393193 L97,19.3600839 L30.7605262,19.3600839 C30.5600311,18.8425086 30.2614834,18.3810076 29.8859636,18.0081675 L29.8859636,18.0081675 Z" id="Path"></path>
                        <path d="M83.5109507,28.0050193 L17.3140464,28.0050193 C17.1244068,27.5818226 16.8565251,27.2041046 16.5265739,26.8946688 C15.1539838,25.5930318 13.0544146,25.7274718 11.836926,27.1949572 C10.6194374,28.6624427 10.7450155,30.9073293 12.1174204,32.2091896 C13.4898252,33.51105 15.5894135,33.3769516 16.807111,31.9096643 C17.0060166,31.6637092 17.1716861,31.3891497 17.2992813,31.0940039 L72.2353293,31.0940039 L66.7623957,37.9034521 L49.9793887,37.9034521 C49.7911486,37.4778279 49.5231143,37.0981035 49.1919162,36.7878393 C47.8180182,35.4878687 45.7186631,35.6247451 44.5026752,37.0935744 C43.2866873,38.5624037 43.4144559,40.8070673 44.7880665,42.107385 C46.1616772,43.4077027 48.2610625,43.2713567 49.477375,41.8028347 C49.6764173,41.5589209 49.8421219,41.2860748 49.9695453,40.9924367 L68.0961772,40.9924367 L76.0250406,31.0940039 L104,31.0940039 L104,28.0050193 L83.5109507,28.0050193 Z" id="Path"></path>
                        <path d="M29.0928783,14.8088753 L70.296797,14.8088753 C70.9223797,16.2774648 72.3644237,17.1524529 73.871631,16.9779751 C75.3788384,16.8034972 76.6100579,15.6190459 76.9238303,14.0417144 C77.2376026,12.4643829 76.5629065,10.8511949 75.2512552,10.0426133 C73.939604,9.23403175 72.2878855,9.41307635 71.1566369,10.4864658 C70.7829019,10.8381819 70.4860866,11.2726221 70.287026,11.7592907 L31.5502616,11.7592907 L36.9682301,5.03669707 L53.6227426,5.03669707 C53.8112329,5.45583683 54.0770598,5.83038919 54.4044152,6.13808026 C55.7707869,7.41816871 57.8542435,7.27822471 59.0582896,5.82548349 C60.2623356,4.37274228 60.1311614,2.15716086 58.7652822,0.8764783 C57.3994029,-0.404204264 55.3158927,-0.265166351 54.111288,1.18705111 C53.9156018,1.42936501 53.7512946,1.698441 53.6227426,1.98711249 L35.6491575,1.98711249 L27.7738057,11.7592907 L0,11.7592907 L0,14.8088753 L29.0928783,14.8088753 Z" id="Path"></path>
                    </g>
                    <text id="ST" fill="#6A6F82" fill-rule="nonzero" font-family="Helvetica" font-size="36" font-weight="normal">
                        <tspan x="110" y="35">ST</tspan>
                    </text>
                </g>
            </g>
        </g>
    </g>
</svg>