<?xml version="1.0" standalone="no"?>
<!DOCTYPE svg PUBLIC "-//W3C//DTD SVG 20010904//EN"
 "http://www.w3.org/TR/2001/REC-SVG-20010904/DTD/svg10.dtd">
<svg version="1.0" xmlns="http://www.w3.org/2000/svg"
 width="920.000000pt" height="920.000000pt" viewBox="0 0 920.000000 920.000000"
 preserveAspectRatio="xMidYMid meet">
<metadata>
Created by potrace 1.11, written by Peter Selinger 2001-2013
</metadata>
<g transform="translate(0.000000,920.000000) scale(0.100000,-0.100000)"
fill="#000000" stroke="none">
<path d="M3449 9196 c-2 -2 -41 -7 -85 -10 -45 -4 -93 -9 -105 -11 -13 -2 -45
-6 -70 -9 -63 -9 -106 -17 -169 -30 -48 -11 -135 -28 -150 -30 -9 -1 -20 -5
-27 -9 -6 -4 -23 -8 -37 -9 -14 -1 -26 -5 -26 -9 0 -3 -6 -6 -12 -6 -7 -1 -51
-13 -98 -28 -47 -15 -91 -27 -97 -28 -7 0 -13 -4 -13 -9 0 -4 -11 -8 -24 -8
-14 0 -28 -5 -31 -10 -4 -6 -11 -8 -16 -5 -5 4 -9 2 -9 -4 0 -9 -56 -27 -72
-23 -5 1 -8 -3 -8 -8 0 -5 -5 -10 -12 -10 -14 0 -274 -128 -349 -172 -31 -18
-80 -46 -108 -63 -28 -16 -51 -33 -51 -37 0 -5 -5 -8 -11 -8 -13 0 -142 -90
-147 -102 -2 -4 -10 -8 -17 -8 -8 0 -18 -6 -22 -13 -4 -7 -19 -20 -33 -29 -14
-9 -38 -28 -55 -42 -16 -14 -50 -43 -75 -63 -101 -84 -375 -369 -430 -447 -8
-12 -25 -32 -37 -46 -13 -14 -23 -28 -23 -32 0 -5 -8 -16 -17 -26 -29 -31 -51
-59 -64 -83 -6 -13 -16 -28 -21 -33 -17 -21 -105 -161 -141 -226 -108 -196
-236 -486 -268 -610 -6 -25 -14 -49 -17 -55 -4 -5 -7 -14 -9 -20 -1 -5 -18
-71 -36 -145 -33 -126 -44 -178 -52 -240 -2 -14 -10 -72 -19 -130 -34 -232
-38 -554 -11 -785 11 -89 14 -90 50 -17 19 37 35 73 35 80 0 6 3 12 8 12 4 0
16 19 27 43 11 23 32 60 46 82 15 22 57 87 95 145 37 58 72 110 76 115 5 6 31
39 59 75 99 126 135 166 269 300 157 157 180 177 320 282 58 44 113 86 123 93
9 8 17 11 17 7 0 -4 4 -2 8 3 10 14 70 55 80 55 4 0 17 8 28 18 11 9 42 30 70
45 66 37 340 171 384 187 19 7 49 18 65 25 106 46 416 132 542 150 21 4 45 8
53 10 8 2 38 7 65 10 28 4 64 9 80 12 17 3 58 6 92 8 34 1 65 5 70 7 4 2 38 4
75 3 38 0 68 4 68 8 0 5 5 5 11 1 6 -3 72 -8 147 -10 76 -2 157 -5 182 -8 25
-3 70 -8 100 -11 30 -3 91 -13 135 -21 44 -8 91 -17 105 -19 14 -2 36 -7 50
-10 14 -4 34 -8 45 -10 80 -14 399 -117 419 -135 5 -5 15 -6 22 -3 8 3 14 1
14 -4 0 -5 6 -10 13 -10 6 0 40 -14 74 -31 34 -16 64 -28 67 -24 3 3 6 0 6 -6
0 -7 5 -12 10 -12 26 0 343 -177 415 -232 6 -4 66 -49 134 -99 148 -111 168
-128 330 -289 130 -129 242 -250 232 -250 -3 0 -1 -4 5 -8 15 -10 123 -155
177 -237 26 -38 50 -75 54 -81 15 -20 33 -49 40 -64 3 -8 14 -26 23 -40 42
-62 173 -334 218 -452 12 -32 31 -82 43 -112 11 -30 21 -60 23 -67 1 -8 8 -24
14 -36 7 -13 11 -23 8 -23 -3 0 2 -21 10 -47 8 -27 24 -86 35 -133 27 -111 29
-120 35 -155 3 -16 8 -41 11 -55 2 -14 5 -33 5 -42 -1 -39 20 -14 62 75 96
201 190 456 212 576 3 14 7 28 10 33 5 8 9 24 20 82 2 16 6 32 8 35 2 3 7 22
10 41 3 19 10 60 16 90 6 30 13 78 16 105 3 28 8 61 10 75 19 101 26 530 11
675 -14 134 -15 140 -17 145 -1 3 -1 17 0 32 1 14 -4 29 -10 33 -5 3 -8 10 -5
15 3 5 -2 44 -11 87 -9 43 -17 87 -18 98 -1 12 -5 26 -9 32 -3 5 -8 25 -9 42
-1 18 -6 35 -10 37 -4 3 -8 16 -8 29 0 13 -5 27 -10 30 -6 4 -8 10 -6 14 4 6
-41 154 -61 201 -3 8 -7 20 -8 25 0 6 -6 22 -13 37 -6 15 -27 66 -47 113 -20
48 -52 119 -72 158 -20 40 -37 74 -38 77 0 3 -10 21 -23 41 -12 20 -22 41 -22
48 0 6 -4 11 -10 11 -5 0 -10 5 -10 12 0 7 -10 28 -23 47 -124 190 -218 321
-229 321 -5 0 -8 5 -8 11 0 6 -6 16 -12 23 -7 8 -33 37 -58 67 -59 69 -284
294 -330 328 -19 14 -41 34 -48 43 -7 10 -17 18 -22 18 -5 0 -26 16 -47 35
-21 19 -46 38 -55 41 -10 3 -18 10 -18 15 0 5 -6 9 -14 9 -8 0 -16 4 -18 8 -5
12 -110 82 -223 149 -88 53 -321 174 -328 171 -1 0 -22 8 -47 19 -63 28 -290
110 -325 117 -5 1 -19 5 -30 9 -11 3 -31 8 -45 11 -14 3 -40 9 -57 15 -18 5
-33 8 -33 5 0 -3 -8 0 -17 5 -18 9 -37 13 -143 31 -30 5 -65 11 -78 14 -13 3
-43 6 -68 7 -24 2 -44 5 -44 8 0 3 -21 7 -48 8 -99 5 -530 12 -533 9z"/>
<path d="M6836 7541 c-4 -5 -3 -11 2 -13 11 -5 154 -223 188 -288 16 -30 32
-57 35 -60 6 -6 83 -164 124 -255 39 -86 71 -174 111 -300 32 -102 40 -130 65
-225 12 -48 39 -187 45 -230 2 -19 6 -46 9 -60 7 -35 16 -105 21 -175 9 -102
11 -469 4 -495 -4 -14 -4 -34 0 -45 4 -11 5 -24 2 -30 -8 -12 -8 -12 -16 -97
-7 -68 -11 -96 -22 -158 -4 -19 -8 -44 -9 -55 -2 -11 -8 -40 -14 -65 -5 -25
-12 -58 -15 -75 -6 -34 -63 -242 -73 -265 -3 -8 -7 -19 -8 -25 -5 -22 -34
-103 -54 -148 -11 -26 -21 -51 -22 -55 -3 -16 -13 -40 -40 -100 -16 -35 -29
-68 -29 -73 0 -5 -4 -9 -8 -9 -4 0 -8 -10 -9 -22 -1 -11 -6 -24 -11 -27 -5 -3
-25 -37 -44 -76 -62 -123 -155 -278 -169 -283 -5 -2 -9 -8 -9 -14 0 -10 -84
-133 -109 -159 -9 -9 -23 -26 -31 -39 -14 -21 -29 -39 -71 -88 -10 -12 -19
-24 -19 -26 0 -11 -199 -217 -301 -311 -119 -110 -312 -261 -396 -310 -18 -11
-33 -23 -33 -27 0 -4 -4 -8 -9 -8 -5 0 -46 -23 -91 -51 -45 -28 -89 -53 -98
-56 -10 -4 -19 -9 -22 -12 -18 -22 -404 -195 -455 -205 -5 -1 -14 -4 -20 -7
-5 -3 -50 -18 -100 -34 -49 -15 -97 -30 -105 -33 -8 -3 -19 -6 -25 -7 -5 -1
-12 -3 -15 -4 -3 -2 -12 -4 -20 -6 -8 -2 -65 -14 -125 -28 -61 -14 -128 -28
-151 -31 -22 -4 -49 -8 -59 -10 -11 -2 -47 -7 -80 -10 -33 -4 -80 -10 -105
-14 -68 -10 -502 -8 -605 2 -49 5 -101 10 -115 12 -14 1 -25 3 -25 4 0 1 -13
4 -90 16 -86 13 -100 16 -111 25 -6 5 -13 6 -16 3 -3 -3 -25 0 -48 6 -23 6
-44 9 -46 7 -2 -2 5 -15 16 -28 107 -129 157 -184 230 -258 92 -93 203 -195
250 -230 19 -14 44 -34 55 -44 11 -10 32 -26 48 -35 15 -9 27 -20 27 -24 0 -4
5 -8 10 -8 6 0 21 -9 33 -21 12 -11 35 -28 51 -36 16 -8 34 -19 40 -24 24 -20
87 -59 96 -59 4 0 10 -4 12 -9 9 -24 343 -189 518 -256 149 -57 342 -115 393
-118 9 -1 17 -5 17 -9 0 -4 12 -8 28 -8 15 -1 53 -7 85 -15 31 -7 60 -14 62
-14 3 -1 6 -1 8 -1 1 -1 23 -3 48 -5 26 -2 60 -7 75 -10 106 -20 551 -28 684
-12 36 4 83 10 105 13 22 2 51 6 65 9 14 3 41 7 60 10 82 13 99 17 185 37 50
12 92 22 95 23 3 1 32 9 65 19 33 10 65 19 70 20 23 5 149 49 173 62 14 7 29
11 34 8 4 -3 8 0 8 5 0 6 3 10 8 9 8 -1 40 11 110 44 26 12 49 22 52 23 11 2
215 108 220 114 3 3 19 13 35 21 17 8 35 18 40 23 6 4 60 40 122 81 134 90
298 221 411 330 46 45 88 83 93 84 5 2 9 7 9 12 0 4 25 34 55 66 79 85 171
195 215 259 62 91 160 237 160 240 0 1 18 33 40 69 45 74 155 300 191 391 12
33 27 64 31 70 4 5 8 19 8 32 0 13 5 23 11 23 6 0 9 6 6 14 -3 7 -2 17 3 22 4
5 20 50 34 99 15 50 30 97 33 105 4 8 7 22 8 30 1 8 4 22 8 30 3 8 13 49 22
90 22 100 24 108 30 155 3 22 8 47 10 55 4 15 12 73 21 155 13 124 18 219 18
380 0 199 -6 286 -30 450 -3 22 -7 56 -9 75 -2 19 -11 69 -20 110 -8 41 -18
91 -21 110 -3 19 -8 38 -11 42 -5 9 -13 41 -18 73 -2 11 -4 21 -5 23 -2 1 -3
5 -4 10 -20 76 -71 232 -91 277 -7 17 -20 48 -28 70 -31 85 -42 110 -50 116
-5 3 -8 9 -8 12 0 4 -8 27 -19 52 -11 25 -19 48 -19 52 0 3 -3 9 -8 12 -4 3
-28 44 -52 91 -91 175 -261 431 -356 536 -5 6 -35 40 -65 75 -58 68 -255 267
-305 309 -50 41 -139 114 -153 125 -7 6 -22 18 -33 28 -10 9 -23 17 -28 17 -5
0 -11 3 -13 8 -5 11 -185 132 -197 132 -6 0 -11 5 -11 10 0 6 -6 10 -14 10 -8
0 -16 3 -18 8 -13 28 -473 248 -566 269 -12 3 -25 9 -28 14 -7 12 -21 11 -28
0z"/>
<path d="M3008 6534 c-2 -1 -33 -5 -68 -8 -36 -2 -65 -5 -65 -6 0 -1 -22 -3
-50 -6 -47 -4 -90 -10 -90 -14 0 -1 -9 -3 -20 -4 -11 -2 -40 -6 -65 -11 -25
-4 -54 -9 -65 -11 -36 -6 -178 -44 -275 -74 -52 -16 -98 -30 -103 -29 -4 0
-20 -7 -35 -15 -15 -7 -58 -26 -97 -41 -87 -34 -338 -155 -346 -168 -3 -5 -9
-8 -13 -7 -13 2 -237 -140 -307 -194 -15 -12 -39 -30 -55 -41 -104 -74 -342
-295 -449 -416 -73 -83 -195 -241 -250 -324 -33 -49 -63 -91 -67 -93 -5 -2 -8
-10 -8 -18 0 -8 -5 -14 -12 -14 -6 0 -9 -3 -5 -6 3 -4 -7 -26 -23 -49 -46 -67
-178 -335 -220 -445 -11 -30 -25 -64 -30 -75 -10 -21 -79 -229 -85 -255 -2 -8
-11 -44 -20 -80 -9 -36 -18 -72 -20 -80 -33 -148 -37 -173 -50 -275 -3 -21 -7
-51 -10 -65 -31 -170 -25 -702 11 -890 2 -14 7 -47 10 -75 3 -27 8 -53 10 -56
2 -4 6 -24 10 -45 6 -45 43 -202 51 -224 3 -8 8 -24 10 -35 5 -26 89 -278 107
-319 53 -125 122 -272 128 -274 5 -2 8 -11 8 -21 0 -9 4 -21 9 -26 5 -6 23
-37 41 -70 46 -83 54 -97 62 -109 11 -16 151 -226 163 -244 6 -8 17 -23 25
-32 8 -10 25 -30 37 -46 12 -16 32 -41 45 -57 13 -15 34 -41 48 -59 36 -46
308 -317 359 -357 24 -19 49 -40 55 -46 31 -29 204 -155 213 -155 6 0 13 -4
15 -8 4 -9 50 -42 98 -70 19 -11 64 -37 100 -59 60 -37 252 -133 360 -181 57
-25 336 -122 370 -128 14 -3 52 -12 85 -21 33 -8 69 -17 80 -19 45 -10 122
-25 154 -30 18 -3 43 -8 55 -10 23 -6 48 -8 181 -20 103 -9 468 -9 565 1 105
10 125 12 125 14 0 1 14 4 30 6 34 4 78 11 150 25 83 17 88 18 155 35 36 9 76
18 89 21 13 3 31 9 40 13 9 5 21 10 26 10 22 4 61 14 70 20 6 3 16 6 23 7 8 2
21 6 30 10 9 4 24 8 32 10 9 2 43 15 75 30 69 30 98 42 105 41 3 0 25 11 50
24 25 13 47 24 50 24 30 6 376 205 417 240 36 30 43 35 48 35 10 0 230 176
274 218 l41 40 -142 -1 c-131 0 -321 8 -379 18 -13 2 -49 6 -79 10 -30 4 -64
8 -75 10 -11 2 -40 7 -65 11 -25 4 -47 8 -50 9 -3 1 -32 7 -65 14 -33 7 -67
16 -75 19 -8 3 -24 7 -35 9 -142 25 -555 191 -745 300 -101 58 -145 86 -148
94 -2 5 -8 9 -13 9 -20 0 -236 155 -328 235 -171 148 -332 312 -448 455 -15
19 -31 37 -35 38 -5 2 -8 8 -8 14 0 5 -6 16 -12 23 -20 22 -31 37 -58 75 -13
19 -28 40 -33 45 -16 19 -96 145 -119 187 -13 24 -25 45 -28 48 -12 12 -150
282 -150 294 0 3 -14 35 -30 71 -32 71 -119 321 -145 420 -24 90 -23 84 -40
165 -3 14 -8 36 -11 50 -3 14 -7 39 -10 55 -2 17 -7 41 -10 55 -4 14 -8 43 -9
65 -2 22 -6 56 -10 75 -8 46 -14 105 -19 191 -3 39 -7 73 -10 76 -2 3 -1 16 4
29 5 13 6 24 2 24 -16 0 3 416 19 437 9 10 8 13 0 13 -7 0 -10 3 -8 8 3 4 7
30 11 57 3 28 8 59 10 70 2 11 7 40 10 65 3 25 8 55 11 68 3 12 7 32 10 45 2
12 8 36 12 52 3 17 8 37 9 45 1 8 10 42 19 75 9 33 17 68 18 78 1 9 6 17 11
17 5 0 7 3 4 6 -5 5 35 137 59 194 3 8 7 17 7 20 1 3 8 24 18 45 9 22 26 65
38 95 67 165 212 428 328 595 31 44 58 82 62 85 3 3 27 34 55 70 99 129 296
340 318 340 6 0 7 3 3 7 -8 8 -33 13 -38 7z"/>
</g>
</svg>
