<svg
  xmlns="http://www.w3.org/2000/svg"
  width="2572"
  height="1440.001"
  viewBox="0 0 2572 1440.001"
>
  <path
    id="Subtraction_1"
    data-name="Subtraction 1"
    d="M2572,1440H0V0H2572V1440ZM1286,348a378.015,378.015,0,0,0-38.035,1.921A371.44,371.44,0,0,0,915.921,681.965a377.566,377.566,0,0,0,0,76.07,371.441,371.441,0,0,0,332.044,332.044,377.591,377.591,0,0,0,76.07,0,371.441,371.441,0,0,0,332.044-332.044,377.59,377.59,0,0,0,0-76.07,371.441,371.441,0,0,0-332.044-332.044A378.015,378.015,0,0,0,1286,348Z"
    transform="translate(0)"
    fill="#456dd3"
  />
</svg>
