<svg
  xmlns="http://www.w3.org/2000/svg"
  width="31.055"
  height="20.298"
  viewBox="0 0 31.055 20.298"
>
  <path
    id="email-icon"
    d="M65.832,26.19H39.463a2.343,2.343,0,0,0-2.343,2.343V44.145a2.343,2.343,0,0,0,2.343,2.343H65.832a2.343,2.343,0,0,0,2.343-2.343V28.533A2.343,2.343,0,0,0,65.832,26.19Zm-2.175,5.839L54.781,37.1a4.311,4.311,0,0,1-4.266,0l-8.876-5.072a1.221,1.221,0,1,1,1.212-2.121l8.875,5.072a1.865,1.865,0,0,0,1.842,0l8.875-5.072a1.221,1.221,0,1,1,1.212,2.121Z"
    transform="translate(-37.12 -26.19)"
    fill="#bbd5fd"
  />
</svg>
