<svg
  id="linkedin-icon"
  xmlns="http://www.w3.org/2000/svg"
  width="31.055"
  height="29.683"
  viewBox="0 0 31.055 29.683"
>
  <path
    id="Path_69"
    data-name="Path 69"
    d="M3.766-.668a3.47,3.47,0,1,0-.087,6.921h.043A3.471,3.471,0,1,0,3.766-.668Zm0,0"
    transform="translate(0 0.668)"
    fill="#94bbf3"
  />
  <path
    id="Path_70"
    data-name="Path 70"
    d="M8.109,198.313h6.657v20.028H8.109Zm0,0"
    transform="translate(-7.716 -188.657)"
    fill="#94bbf3"
  />
  <path
    id="Path_71"
    data-name="Path 71"
    d="M233.871,188.625c-3.591,0-6,3.375-6,3.375v-2.9h-6.657v20.028h6.657V197.939a4.562,4.562,0,0,1,.219-1.625,3.644,3.644,0,0,1,3.416-2.434c2.409,0,3.372,1.837,3.372,4.529v10.714h6.657V197.639C241.535,191.488,238.251,188.625,233.871,188.625Zm0,0"
    transform="translate(-210.481 -179.44)"
    fill="#94bbf3"
  />
</svg>
