<svg
  xmlns="http://www.w3.org/2000/svg"
  width="148.297"
  height="30.996"
  viewBox="0 0 148.297 30.996"
>
  <path
    id="Path_156"
    data-name="Path 156"
    d="M3.2,0V-21.32H7.667v3.526h.2a9.307,9.307,0,0,1,.8-1.558,5.448,5.448,0,0,1,1.148-1.292,4.987,4.987,0,0,1,1.6-.861,6.814,6.814,0,0,1,2.153-.307,7.042,7.042,0,0,1,3.854,1.066,6.124,6.124,0,0,1,2.46,3.28h.123a6.245,6.245,0,0,1,2.214-3.075,6.7,6.7,0,0,1,4.223-1.271,6.053,6.053,0,0,1,4.961,2.153,9.44,9.44,0,0,1,1.763,6.129V0H28.7V-13a6.112,6.112,0,0,0-.943-3.711,3.506,3.506,0,0,0-2.993-1.25,5.869,5.869,0,0,0-1.64.226,4.163,4.163,0,0,0-1.374.677,3.435,3.435,0,0,0-.963,1.148,3.366,3.366,0,0,0-.369,1.6V0H15.949V-13q0-4.961-3.9-4.961a5.939,5.939,0,0,0-1.62.226,4.376,4.376,0,0,0-1.415.677,3.338,3.338,0,0,0-.984,1.148,3.366,3.366,0,0,0-.369,1.6V0ZM53.341,0a3.532,3.532,0,0,1-2.706-1,4.488,4.488,0,0,1-1.148-2.562h-.205A5.242,5.242,0,0,1,47.027-.533,7.357,7.357,0,0,1,43.05.492a7.055,7.055,0,0,1-5.1-1.722,6.141,6.141,0,0,1-1.784-4.633,5.442,5.442,0,0,1,2.317-4.8q2.316-1.6,6.785-1.6h3.854v-1.8A4.1,4.1,0,0,0,48.052-17.1a4.531,4.531,0,0,0-3.321-1.066,5.306,5.306,0,0,0-3.075.82,7.338,7.338,0,0,0-2.009,2.091l-2.665-2.419a8.541,8.541,0,0,1,2.993-2.972,9.632,9.632,0,0,1,5.043-1.169,9.4,9.4,0,0,1,6.355,1.927,6.942,6.942,0,0,1,2.214,5.535v10.7h2.255V0Zm-9.02-2.911a5.985,5.985,0,0,0,3.444-.923,2.861,2.861,0,0,0,1.353-2.48V-9.389H45.346q-4.633,0-4.633,2.87v.738a2.512,2.512,0,0,0,.964,2.153A4.34,4.34,0,0,0,44.321-2.911ZM58.589,0V-21.32h4.469v3.526h.205a7.028,7.028,0,0,1,2.111-2.87,5.978,5.978,0,0,1,3.875-1.148,6.327,6.327,0,0,1,5.1,2.153,9.218,9.218,0,0,1,1.825,6.129V0H71.709V-12.956q0-5-4.018-5a6.539,6.539,0,0,0-1.7.226,4.824,4.824,0,0,0-1.5.677,3.369,3.369,0,0,0-1.045,1.148,3.308,3.308,0,0,0-.389,1.64V0Zm24.4-25.133a2.724,2.724,0,0,1-2.03-.656,2.316,2.316,0,0,1-.635-1.681v-.7a2.316,2.316,0,0,1,.635-1.681,2.724,2.724,0,0,1,2.03-.656,2.65,2.65,0,0,1,2.009.656,2.359,2.359,0,0,1,.615,1.681v.7a2.359,2.359,0,0,1-.615,1.681A2.65,2.65,0,0,1,82.984-25.133ZM80.729-21.32H85.2V0H80.729Zm10.332,3.649H87.822V-21.32h3.239v-3.526a5.7,5.7,0,0,1,1.353-4.038,5.279,5.279,0,0,1,4.059-1.455H100v3.649H95.53v5.371H100v3.649H95.53V0H91.061ZM110.454.492a10.182,10.182,0,0,1-4.038-.779,8.461,8.461,0,0,1-3.1-2.235,10.269,10.269,0,0,1-1.968-3.526,14.4,14.4,0,0,1-.7-4.613,14.4,14.4,0,0,1,.7-4.613A10.269,10.269,0,0,1,103.32-18.8a8.461,8.461,0,0,1,3.1-2.235,10.182,10.182,0,0,1,4.038-.779,10.182,10.182,0,0,1,4.039.779,8.461,8.461,0,0,1,3.1,2.235,10.269,10.269,0,0,1,1.968,3.526,14.4,14.4,0,0,1,.7,4.613,14.4,14.4,0,0,1-.7,4.613,10.269,10.269,0,0,1-1.968,3.526,8.461,8.461,0,0,1-3.1,2.235A10.182,10.182,0,0,1,110.454.492Zm0-3.69a4.948,4.948,0,0,0,3.69-1.414,5.816,5.816,0,0,0,1.394-4.244v-3.608a5.816,5.816,0,0,0-1.394-4.244,4.948,4.948,0,0,0-3.69-1.414,4.948,4.948,0,0,0-3.69,1.414,5.816,5.816,0,0,0-1.394,4.244v3.608a5.816,5.816,0,0,0,1.394,4.244A4.948,4.948,0,0,0,110.454-3.2ZM128.125,0A4.555,4.555,0,0,1,124.7-1.168a4.5,4.5,0,0,1-1.128-3.26V-30.34h4.469V-3.649h2.952V0Zm18.9-3.526h-.205a5.943,5.943,0,0,1-2.275,2.952,6.471,6.471,0,0,1-3.71,1.066,7.4,7.4,0,0,1-6.273-2.932q-2.214-2.931-2.214-8.22t2.214-8.221a7.4,7.4,0,0,1,6.273-2.931,6.563,6.563,0,0,1,3.71,1.045,5.822,5.822,0,0,1,2.275,2.973h.205V-30.34H151.5V0h-4.469Zm-4.838.164a5.736,5.736,0,0,0,3.444-1,3.112,3.112,0,0,0,1.394-2.645v-7.3a3.112,3.112,0,0,0-1.394-2.645,5.736,5.736,0,0,0-3.444-1,4.855,4.855,0,0,0-3.731,1.5,5.572,5.572,0,0,0-1.394,3.957v3.69a5.572,5.572,0,0,0,1.394,3.957A4.855,4.855,0,0,0,142.188-3.362Z"
    transform="translate(-3.198 30.504)"
    fill="#4f7bdb"
  />
</svg>
