<svg
  xmlns="http://www.w3.org/2000/svg"
  xmlns:xlink="http://www.w3.org/1999/xlink"
  width="56.046"
  height="57.429"
  viewBox="0 0 56.046 57.429"
>
  <defs>
    <linearGradient
      id="linear-gradient"
      y1="0.5"
      x2="1"
      y2="0.5"
      gradientUnits="objectBoundingBox"
    >
      <stop offset="0" stop-color="#a0c6f6" />
      <stop offset="1" stop-color="#2f55d0" />
    </linearGradient>
  </defs>
  <g id="M" transform="translate(-163.75 -61.753)">
    <path
      id="Path_1"
      data-name="Path 1"
      d="M3664.848-1344.559a20.177,20.177,0,0,0-20.921-17.245q-.7.039-1.392.135a19.709,19.709,0,0,0-15.264,11.361,20.623,20.623,0,0,1,4.1-15.4c6.852-8.958,19.471-10.813,28.188-4.145a19.378,19.378,0,0,1,3.75,3.786A20.255,20.255,0,0,1,3664.848-1344.559Z"
      transform="translate(-3461.596 1435.607)"
      fill="url(#linear-gradient)"
    />
    <path
      id="Path_2"
      data-name="Path 2"
      d="M3658.4-1319.387a19.386,19.386,0,0,1-10.719,5.077c-10.876,1.45-20.9-6.439-22.388-17.616a20.691,20.691,0,0,1,1.738-11.5,19.707,19.707,0,0,1,15.264-11.361q.7-.1,1.392-.135a20.554,20.554,0,0,0-6.286,17.784,20.759,20.759,0,0,0,4.167,10.012A19.8,19.8,0,0,0,3658.4-1319.387Z"
      transform="translate(-3461.36 1433.32)"
      fill="url(#linear-gradient)"
    />
    <path
      id="Path_3"
      data-name="Path 3"
      d="M3666.806-1322.481c-.463.062-.927.109-1.391.133a19.8,19.8,0,0,1-16.831-7.738,20.44,20.44,0,0,0,21.121-7.555,21,21,0,0,0,1.918-3,20.25,20.25,0,0,0-1.542-21.507,20.462,20.462,0,0,1,13.722,16.8C3685.292-1334.165,3677.682-1323.927,3666.806-1322.481Z"
      transform="translate(-3464.194 1434.192)"
      fill="url(#linear-gradient)"
    />
  </g>
</svg>
