<svg
  xmlns="http://www.w3.org/2000/svg"
  width="153.41"
  height="157.199"
  viewBox="0 0 153.41 157.199"
>
  <g id="Manifold-logomark-white" transform="translate(-163.75 -61.753)">
    <path
      id="Path_1"
      data-name="Path 1"
      d="M3730.467-1293.666c-4.493-28.561-29.451-48.908-57.267-47.2q-1.905.105-3.81.369a53.948,53.948,0,0,0-41.783,31.1,56.458,56.458,0,0,1,11.223-42.148c18.756-24.521,53.3-29.6,77.156-11.345a53.057,53.057,0,0,1,10.263,10.363C3738.736-1335.848,3740.544-1312.825,3730.467-1293.666Z"
      transform="translate(-3458.593 1435.607)"
      fill="#fff"
    />
    <path
      id="Path_2"
      data-name="Path 2"
      d="M3716.238-1257.656a53.065,53.065,0,0,1-29.339,13.9c-29.772,3.969-57.209-17.625-61.282-48.22a56.635,56.635,0,0,1,4.757-31.478,53.943,53.943,0,0,1,41.782-31.1q1.9-.26,3.81-.369a56.258,56.258,0,0,0-17.2,48.68,56.821,56.821,0,0,0,11.406,27.406A54.2,54.2,0,0,0,3716.238-1257.656Z"
      transform="translate(-3461.359 1462.239)"
      fill="#fff"
    />
    <path
      id="Path_3"
      data-name="Path 3"
      d="M3698.462-1253.577c-1.268.171-2.539.3-3.809.365a54.192,54.192,0,0,1-46.069-21.182,55.949,55.949,0,0,0,57.814-20.679,57.592,57.592,0,0,0,5.251-8.2c10.077-19.158,8.27-42.184-4.221-58.871a56.009,56.009,0,0,1,37.561,45.992C3749.063-1285.559,3728.233-1257.534,3698.462-1253.577Z"
      transform="translate(-3428.338 1452.076)"
      fill="#fff"
    />
  </g>
</svg>
