<svg
  id="telegram-icon"
  xmlns="http://www.w3.org/2000/svg"
  width="29.981"
  height="26.104"
  viewBox="0 0 29.981 26.104"
>
  <path
    id="XMLID_497_"
    d="M.53,31.917,7.438,34.5l2.674,8.6a.813.813,0,0,0,1.292.389l3.851-3.139a1.149,1.149,0,0,1,1.4-.039L23.6,45.348a.814.814,0,0,0,1.276-.492l5.088-24.474a.814.814,0,0,0-1.09-.925L.522,30.394A.815.815,0,0,0,.53,31.917Zm9.151,1.206,13.5-8.316a.235.235,0,0,1,.284.372L12.324,35.537a2.31,2.31,0,0,0-.716,1.382l-.38,2.813a.349.349,0,0,1-.681.049l-1.46-5.129A1.359,1.359,0,0,1,9.681,33.123Z"
    transform="translate(0 -19.401)"
    fill="#4873d3"
  />
</svg>
