<svg
  xmlns="http://www.w3.org/2000/svg"
  width="35.297"
  height="28.672"
  viewBox="0 0 35.297 28.672"
>
  <path
    id="twitter-icon"
    d="M94.731,72.456a14.255,14.255,0,0,1-4.155,1.138,7.284,7.284,0,0,0,3.185-4,14.585,14.585,0,0,1-4.6,1.757A7.245,7.245,0,0,0,76.641,76.3a7.34,7.34,0,0,0,.185,1.648A20.559,20.559,0,0,1,61.9,70.382a7.26,7.26,0,0,0-.979,3.639h0a7.222,7.222,0,0,0,3.218,6.023,7.282,7.282,0,0,1-3.282-.9v.09a7.239,7.239,0,0,0,5.808,7.1,7.275,7.275,0,0,1-1.908.256,7.6,7.6,0,0,1-1.367-.13,7.262,7.262,0,0,0,6.762,5.03,14.561,14.561,0,0,1-10.722,3,20.477,20.477,0,0,0,11.1,3.254c13.314,0,20.6-11.034,20.6-20.6,0-.318-.007-.626-.02-.937a14.515,14.515,0,0,0,3.611-3.741l0,0h0Z"
    transform="translate(-59.435 -69.066)"
    fill="#5e8be2"
  />
</svg>
