<svg width="512" height="512" viewBox="0 0 512 512" fill="none" xmlns="http://www.w3.org/2000/svg">
<g clip-path="url(#clip0)">
<path fill-rule="evenodd" clip-rule="evenodd" d="M512 254.786C512 114.229 397.256 0.0585938 256 0.0585938C114.744 0.0585938 0 114.229 0 254.786C0 395.338 114.744 509.512 256 509.512C397.256 509.512 512 395.338 512 254.786Z" fill="url(#paint0_linear)"/>
<path fill-rule="evenodd" clip-rule="evenodd" d="M306.394 371.325C340.347 383.734 370.962 388.938 396.315 392.483C421.67 396.027 441.768 397.912 452.283 399.384C462.797 400.856 463.731 401.914 463.267 403.037C462.802 404.155 460.942 405.342 456.088 406.786C451.235 408.229 443.386 409.934 427.701 418.554C412.013 427.178 388.488 442.718 365.158 455.024C341.827 467.333 318.691 476.403 291.426 484.147C264.162 491.89 232.768 498.304 203.826 497.13C174.882 495.955 148.385 487.194 124.077 472.757C99.7661 458.317 77.641 438.205 65.6885 413.819C53.7336 389.432 51.9541 360.77 55.1768 340.24C58.3997 319.712 66.6275 307.312 79.5213 299.544C92.4152 291.774 109.975 288.637 130.473 292.766C150.972 296.898 174.413 308.296 204.779 323.8C235.146 339.306 272.438 358.918 306.394 371.325Z" fill="#00F8FF" fill-opacity="0.396061"/>
<path opacity="0.699544" fill-rule="evenodd" clip-rule="evenodd" d="M356.656 424.976C380.454 432.92 404.122 440.667 408.848 449.222C413.573 457.779 399.36 467.146 380.19 477.322C361.021 487.498 336.896 498.486 306.619 504.462C276.342 510.442 239.914 511.406 206.323 504.474C172.736 497.539 141.988 482.709 124.278 467.568C106.568 452.43 101.898 436.982 101.978 421.411C102.054 405.84 106.88 390.144 119.608 380.006C132.334 369.867 152.963 365.288 181.845 369.669C210.726 374.053 247.864 387.398 278.397 398.142C308.931 408.886 332.859 417.03 356.656 424.976Z" fill="#053FBE"/>
<path fill-rule="evenodd" clip-rule="evenodd" d="M297.4 441.627C327.403 451.52 359.832 464.742 361.659 476.619C363.485 488.496 334.707 499.027 304.435 504.786C274.163 510.549 242.397 511.541 215.437 504.493C188.48 497.445 166.334 482.352 157.258 466.475C148.186 450.595 152.184 433.93 163.525 425.818C174.866 417.707 193.547 418.157 216.682 421.661C239.813 425.17 267.395 431.733 297.4 441.627Z" fill="#001EC3"/>
<path fill-rule="evenodd" clip-rule="evenodd" d="M235.171 456.563C218.859 455.878 206.442 461.093 202.987 468.64C199.534 476.187 205.046 486.069 216.341 492.669C227.635 499.269 244.714 502.587 262.614 502.392C280.517 502.195 299.246 498.485 304.266 492.57C309.286 486.654 300.595 478.536 286.144 471.186C271.696 463.834 251.486 457.25 235.171 456.563Z" fill="#000086"/>
<path opacity="0.8" fill-rule="evenodd" clip-rule="evenodd" d="M238.414 487.346C268.846 483.333 299.842 472.696 334.136 452.518C368.432 432.344 406.026 402.63 432.008 371.333C457.989 340.032 472.36 307.144 481.518 276.506C490.675 245.864 494.618 217.475 491.507 188.477C488.394 159.482 478.229 129.875 461.749 106.501C445.27 83.1248 422.477 65.9766 394.766 55.2857C367.058 44.595 334.43 40.3614 300.93 44.9134C267.43 49.4652 233.058 62.8053 199.936 82.6816C166.818 102.558 134.953 128.968 107.95 160.669C80.947 192.366 58.8081 229.354 48.4504 268.752C38.0926 308.152 39.516 349.966 47.58 380.803C55.644 411.64 70.3486 431.499 88.2379 447.222C106.125 462.946 127.196 474.533 152.66 481.634C178.126 488.736 207.987 491.355 238.414 487.346Z" fill="url(#paint1_linear)"/>
<path fill-rule="evenodd" clip-rule="evenodd" d="M216.896 177.814C254.333 196.243 293.266 220.195 321.682 246.422C350.096 272.646 367.99 301.147 372.189 328.794C376.387 356.438 366.886 383.234 349.274 405.632C331.658 428.029 305.93 446.037 281.546 457.792C257.162 469.547 234.125 475.058 209.616 476.595C185.106 478.136 159.122 475.709 136.016 469.32C112.909 462.93 92.6798 452.574 76.2523 437.613C59.8222 422.646 47.1963 403.074 38.3003 380.773C29.4043 358.472 24.2408 333.44 20.7643 307.042C17.2904 280.645 15.5009 252.88 14.8891 226.618C14.2798 200.357 14.8455 175.6 21.883 159.981C28.923 144.363 42.4373 137.886 57.7998 135.007C73.1598 132.129 90.3682 132.85 116.944 139.664C143.519 146.48 179.459 159.385 216.896 177.814Z" fill="#1CEFFF" fill-opacity="0.6"/>
<g style="mix-blend-mode:multiply">
<g style="mix-blend-mode:multiply">
<path fill-rule="evenodd" clip-rule="evenodd" d="M281.89 180.939C328.291 205.277 377.162 232.952 414.238 263.232C451.317 293.514 476.603 326.398 483.512 348.47C490.419 370.541 478.947 381.798 456.962 384.507C434.978 387.214 402.475 381.376 364.467 368.747C326.459 356.118 282.944 336.698 243.366 316.032C203.79 295.368 168.15 273.454 138.836 252.77C109.519 232.09 86.525 212.635 70.2178 196.486C53.9131 180.336 44.2952 167.493 39.1368 152.737C33.9758 137.98 33.2718 121.313 52.0955 114.64C70.9166 107.966 109.265 111.287 150.407 123.445C191.549 135.606 235.486 156.603 281.89 180.939Z" fill="#94FF63" fill-opacity="0.6"/>
</g>
</g>
<path fill-rule="evenodd" clip-rule="evenodd" d="M253.725 299.91C278.186 314.918 308.914 330.834 343.475 343.126C378.038 355.419 416.435 364.093 444.723 364.398C473.014 364.707 492.454 356.725 501.611 326.123C510.768 295.522 515.813 253.512 508.243 210.782C500.672 168.054 479.23 124.528 458.546 102.257C437.861 79.9866 411.763 67.7573 382.093 61.44C352.422 55.1227 319.173 54.7152 287.219 62.576C255.266 70.4344 224.602 86.556 201.477 107.568C178.35 128.581 162.76 154.481 162.581 180.152C162.402 205.821 177.634 231.264 194.347 251.034C211.064 270.802 229.261 284.904 253.725 299.91Z" fill="url(#paint2_linear)"/>
<path fill-rule="evenodd" clip-rule="evenodd" d="M7.44153 213.982C12.3491 198.877 20.7101 185.84 35.8269 180.57C50.9437 175.298 72.8189 177.792 95.5798 183.166C118.343 188.544 141.995 196.798 168.189 211.843C194.386 226.888 223.125 248.717 243.274 272.131C263.426 295.544 274.992 320.539 276.968 344.701C278.942 368.864 271.33 392.192 257.538 409.954C243.75 427.717 223.787 439.91 202.672 446.894C181.557 453.877 159.285 455.651 136.56 452.203C113.835 448.757 90.6544 440.091 72.3555 426.936C54.0592 413.782 40.6474 396.146 30.8042 378.027C20.9635 359.906 14.694 341.306 10.0911 322.126C5.48825 302.946 2.55449 283.189 1.81721 264.722C1.07737 246.256 2.53145 229.085 7.44153 213.982Z" fill="url(#paint3_linear)"/>
<path fill-rule="evenodd" clip-rule="evenodd" d="M123.246 416.006C138.506 416.458 154.45 414.458 167.36 407.368C180.27 400.277 190.149 388.096 195.541 373.032C200.93 357.966 201.827 340.019 195.704 321.795C189.581 303.57 176.432 285.072 157.904 270.237C139.377 255.398 115.472 244.221 95.9592 236.534C76.4469 228.846 61.3275 224.643 47.4267 227.632C33.5234 230.616 20.836 240.79 14.6766 254.187C8.51469 267.579 8.88333 284.198 10.8955 299.296C12.9076 314.397 16.5634 327.981 22.3362 341.086C28.1064 354.192 35.9963 366.819 45.7627 378.184C55.5317 389.55 67.1771 399.658 80.292 406.158C93.4043 412.659 107.986 415.558 123.246 416.006Z" fill="url(#paint4_linear)"/>
<path fill-rule="evenodd" clip-rule="evenodd" d="M116.687 306.422C128.412 320.597 133.66 338.435 131.184 351.179C128.711 363.923 118.512 371.57 105.484 372.805C92.4566 374.04 76.6 368.862 64.4656 359.923C52.3286 350.986 43.9139 338.285 39.4211 325.366C34.9283 312.453 34.3574 299.318 39.8717 290.261C45.3834 281.205 56.9776 276.226 71.8742 278.987C86.7683 281.747 104.965 292.253 116.687 306.422Z" fill="#0A0FCA" fill-opacity="0.8"/>
<path fill-rule="evenodd" clip-rule="evenodd" d="M373.987 267.656C397.358 276.786 425.958 280.835 445.898 276.141C465.838 271.445 477.12 258.002 481.507 241.376C485.896 224.752 483.392 204.942 474.517 185.232C465.642 165.523 450.394 145.915 429.627 133.958C408.861 122.001 382.576 117.694 360.822 119.846C339.064 121.999 321.838 130.609 311.522 142.644C301.206 154.68 297.8 170.142 299.421 185.288C301.04 200.437 307.683 215.272 320.077 229.794C332.472 244.315 350.614 258.526 373.987 267.656Z" fill="#FF6D00" fill-opacity="0.856971"/>
<path fill-rule="evenodd" clip-rule="evenodd" d="M343.344 299.723C371.37 312.33 401.686 321.558 427.128 322.707C452.57 323.859 473.136 316.928 486.57 302.445C500.003 287.958 506.304 265.918 505.91 237.094C505.518 208.267 498.432 172.656 477.245 144.035C456.059 115.416 420.771 93.7877 384.12 86.9941C347.466 80.2032 309.45 88.2422 282.462 104.932C255.475 121.622 239.518 146.959 238.256 173.435C236.995 199.914 250.427 227.53 270.008 249.331C289.592 271.133 315.323 287.117 343.344 299.723Z" fill="#FFFD00" fill-opacity="0.749399"/>
<path fill-rule="evenodd" clip-rule="evenodd" d="M307.264 162.838C336.904 176.912 367.106 191.747 393.07 199.845C419.034 207.946 440.76 209.312 454.814 201.198C468.866 193.088 475.246 175.499 475.938 158.626C476.629 141.75 471.629 125.593 461.621 108.254C451.611 90.9144 436.595 72.3933 412.917 58.0088C389.24 43.6271 356.902 33.3819 323.747 32.0293C290.595 30.6792 256.627 38.2192 228.954 47.6619C201.277 57.1071 179.899 68.4501 161.131 78.9194C142.361 89.3887 126.205 98.9842 109.47 104.698C92.7356 110.411 75.4198 112.245 65.208 110.747C54.9987 109.252 51.8908 104.425 53.5779 100.286C55.2675 96.1439 61.7545 92.6898 74.9667 91.2583C88.1788 89.8267 108.119 90.4227 133.324 95.9071C158.533 101.391 189.006 111.766 218.779 123.611C248.555 135.456 277.627 148.768 307.264 162.838Z" fill="url(#paint5_radial)"/>
<path fill-rule="evenodd" clip-rule="evenodd" d="M269.338 95.4254C302.61 106.162 336.274 115.437 364.565 118.891C392.854 122.342 415.773 119.973 425.283 109.451C434.79 98.928 430.891 80.2514 417.2 63.0115C403.51 45.7717 380.024 29.9634 352.704 21.3816C325.381 12.7999 294.221 11.4447 267.594 13.238C240.968 15.0338 218.875 19.9781 198.333 26.1373C177.795 32.2941 158.805 39.6634 142.697 44.3528C126.59 49.0398 113.362 51.0496 106.291 52.313C99.2207 53.5739 98.3067 54.091 99.4306 54.2362C100.554 54.3789 103.721 54.147 115.873 55.0947C128.026 56.0422 149.164 58.1667 176.174 65.3296C203.184 72.4899 236.066 84.6888 269.338 95.4254Z" fill="url(#paint6_linear)"/>
<path fill-rule="evenodd" clip-rule="evenodd" d="M219.27 41.9789C238.077 46.6328 255.59 52.2061 274.771 56.1698C293.957 60.1333 314.808 62.4894 332.211 62.3187C349.613 62.1507 363.565 59.4582 368.602 52.3973C373.637 45.3387 369.75 33.9142 358.822 25.144C347.893 16.3738 329.917 10.2604 312.107 6.07267C294.298 1.88496 276.651 -0.374459 256.998 0.0509333C237.344 0.476326 215.685 3.58653 198.832 7.28006C181.979 10.9711 169.934 15.2454 161.405 18.3555C152.872 21.4658 147.857 23.4093 146.375 24.9072C144.893 26.4024 146.946 27.4493 149.852 28.1982C152.755 28.947 156.513 29.3979 168.44 31.4918C180.366 33.5856 200.466 37.3251 219.27 41.9789Z" fill="url(#paint7_linear)"/>
<path fill-rule="evenodd" clip-rule="evenodd" d="M270.589 27.3881C283.914 27.5461 297.366 25.9923 305.434 23.4857C313.499 20.9792 316.182 17.5225 313.282 13.7934C310.384 10.0616 301.902 6.05989 291.286 3.59923C280.667 1.13858 267.917 0.221566 255.368 0.26487C242.818 0.308173 230.477 1.31434 221.624 3.31139C212.771 5.30845 207.411 8.2964 209.536 11.8244C211.658 15.3523 221.262 19.4203 232.662 22.3878C244.066 25.3579 257.264 27.2302 270.589 27.3881Z" fill="#A60000"/>
<g style="mix-blend-mode:multiply">
<g style="mix-blend-mode:multiply">
<path fill-rule="evenodd" clip-rule="evenodd" d="M418.698 238.426C434.237 236.406 446.077 223.366 447.886 208.539C449.698 193.712 441.477 177.096 426.944 167.118C412.408 157.143 391.56 153.804 377.349 157.388C363.138 160.971 355.568 171.478 354.565 183.477C353.558 195.474 359.122 208.96 371.52 220.203C383.92 231.446 403.157 240.446 418.698 238.426Z" fill="#FF6D00" fill-opacity="0.418187"/>
</g>
</g>
<g style="mix-blend-mode:screen">
<g style="mix-blend-mode:screen">
<path fill-rule="evenodd" clip-rule="evenodd" d="M39.565 392.003C48.228 404.963 58.9902 417.082 72.356 426.784C90.6549 440.064 113.836 448.816 136.561 452.296C159.286 455.776 181.558 453.986 202.672 446.934C223.787 439.882 243.75 427.57 257.539 409.637C271.33 391.702 278.942 368.149 276.97 343.755C274.992 319.358 263.427 294.123 243.274 270.482C223.125 246.845 194.386 224.803 168.189 209.613C141.996 194.424 118.344 186.086 95.5803 180.659C72.8194 175.232 50.9442 172.715 35.8274 178.037C20.7106 183.36 12.3496 196.52 7.44206 211.771C3.01326 225.528 1.39533 240.987 1.66414 257.57C2.29902 228.448 7.21422 215.514 11.8043 205.952C16.3918 196.389 20.6517 190.202 27.0926 185.77C33.531 181.338 42.1506 178.664 54.9454 178.55C67.7403 178.437 84.7106 180.886 102.92 186.134C121.129 191.384 140.575 199.432 159.053 209.6C177.528 219.768 195.034 232.056 210.282 244.838C225.531 257.622 238.523 270.904 248.934 286.616C259.349 302.33 267.179 320.475 269.61 338.658C272.038 356.843 269.064 375.07 261.45 390.389C253.837 405.709 241.584 418.118 227.32 427.976C213.059 437.835 196.784 445.141 178.918 448.062C161.053 450.982 141.591 449.518 124.682 445.674C107.776 441.829 93.4222 435.605 82.363 429.39C71.3013 423.178 63.5342 416.976 56.6658 410.706C49.7947 404.437 43.8222 398.096 39.565 392.003Z" fill="white"/>
</g>
</g>
<path fill-rule="evenodd" clip-rule="evenodd" d="M167.36 407.587C154.45 414.786 138.506 416.816 123.246 416.36C107.986 415.902 93.4043 412.962 80.292 406.358C67.1771 399.757 55.5317 389.498 45.7627 377.954C35.9963 366.413 28.1064 353.592 22.3362 340.286C16.5634 326.979 12.9076 313.186 10.8955 297.854C8.88333 282.522 8.51469 265.65 14.6766 252.048C20.836 238.448 33.5234 228.115 47.4267 225.083C61.3275 222.053 76.4469 226.317 95.9592 234.123C115.472 241.931 139.377 253.278 157.904 268.344C176.432 283.411 189.581 302.194 195.704 320.698C201.827 339.2 200.93 357.427 195.541 372.723C190.149 388.021 180.27 400.389 167.36 407.587ZM164.642 279.603C153.006 267.797 138.299 257.486 123.361 249.39C108.424 241.296 93.2558 235.411 81.2085 231.254C69.1611 227.098 60.2293 224.672 49.787 226.573C39.3448 228.474 27.387 234.702 19.9579 246.72C12.5313 258.733 9.62829 276.541 12.4852 297.83C15.3396 319.122 23.9515 343.898 37.4606 364.035C50.9723 384.176 69.3838 399.675 91.8402 407.32C114.299 414.966 140.803 414.758 159.291 406.624C177.779 398.493 188.254 382.437 192.605 366.349C196.954 350.262 195.178 334.147 190.008 319.435C184.84 304.723 176.277 291.413 164.642 279.603Z" fill="white"/>
<path fill-rule="evenodd" clip-rule="evenodd" d="M62.1181 422.28C66.4675 427.768 71.1779 432.869 76.2518 437.526C92.6793 452.613 112.908 463.05 136.015 469.493C159.122 475.936 185.106 478.384 209.614 476.83C234.125 475.277 257.162 469.725 281.546 457.87C305.93 446.019 331.658 427.869 349.274 405.285C366.886 382.706 376.386 355.694 372.187 327.824C367.989 299.95 350.094 271.221 321.682 244.779C293.266 218.342 254.333 194.195 216.896 175.616C179.458 157.037 143.518 144.024 116.943 137.155C90.3677 130.285 73.1593 129.559 57.7993 132.461C42.4368 135.36 28.9225 141.893 21.8825 157.637C20.2697 161.245 18.9974 165.339 17.999 169.826C22.6685 154.057 30.0413 145.83 40.5117 140.362C50.9821 134.895 64.5475 132.186 85.0224 134.073C105.497 135.961 132.876 142.445 166.981 155.919C201.083 169.394 241.909 189.858 275.64 213.288C309.373 236.717 336.01 263.107 350.914 289.491C365.819 315.878 368.987 342.251 363.046 364.88C357.102 387.507 342.046 406.384 322.894 423.293C303.746 440.2 280.499 455.141 253.987 463.774C227.477 472.41 197.696 474.742 172.746 473.088C147.794 471.437 127.672 465.8 110.064 457.574C92.4566 449.35 77.3629 438.536 62.1181 422.28Z" fill="white"/>
<path fill-rule="evenodd" clip-rule="evenodd" d="M36.0349 135.858C35.953 126.932 39.8288 120.328 47.0122 116.247C54.1955 112.167 64.6864 110.608 80.4765 111.474C96.2691 112.339 117.364 115.629 141.737 122.801C166.11 129.975 193.765 141.034 225.434 156.134C257.101 171.235 292.786 190.374 322.299 207.224C351.813 224.072 375.155 238.629 395.89 253.963C416.622 269.301 434.75 285.419 448.05 299.659C461.35 313.899 469.824 326.264 475.366 335.566C480.909 344.869 483.523 351.11 484.517 356.96C485.509 362.808 484.882 368.264 480.464 374.882C485.722 368.867 487.109 360.208 483.512 348.586C476.603 326.264 451.318 293.008 414.238 262.387C377.163 231.763 328.293 203.774 281.89 179.163C235.486 154.553 191.55 133.319 150.408 121.023C109.266 108.725 70.9175 105.369 52.0963 112.118C39.4064 116.667 35.592 125.809 36.0349 135.858Z" fill="white"/>
<path fill-rule="evenodd" clip-rule="evenodd" d="M452.68 399.434C452.733 399.442 452.787 399.45 452.838 399.458C463.294 400.955 464.222 402.03 463.763 403.173C463.299 404.312 461.45 405.52 456.622 406.987C451.797 408.456 443.298 409.786 427.701 418.554C412.101 427.326 388.358 442.506 365.158 455.024C341.957 467.546 318.95 476.771 291.837 484.65C264.725 492.526 234.547 500.085 205.765 498.89C178.997 497.779 154.335 489.992 131.566 477.093C175.362 499.362 208.501 497.656 235.403 493.955C262.302 490.256 282.962 484.558 305.859 475.795C328.754 467.034 353.886 455.203 373.094 444.653C392.306 434.106 405.594 424.834 416.88 418.669C428.166 412.504 437.453 409.445 444.6 407.531C451.746 405.622 456.758 404.861 459.654 404.158C462.554 403.459 463.338 402.819 462.461 402.083C461.581 401.347 459.04 400.512 452.68 399.434Z" fill="white"/>
<path fill-rule="evenodd" clip-rule="evenodd" d="M455.603 98.529C457.792 101.749 459.789 104.958 461.622 108.132C471.629 125.471 476.629 141.629 475.938 158.502C475.246 175.374 468.867 192.963 454.814 201.077C440.76 209.19 419.034 207.822 393.07 199.725C367.107 191.624 336.904 176.79 307.264 162.717C277.627 148.644 248.555 135.332 218.781 123.487C189.008 111.645 158.533 101.27 133.325 95.7854C108.119 90.2987 88.1795 89.7051 74.9673 91.1342C61.7552 92.5658 55.2681 96.0224 53.5785 100.162C53.4045 100.592 53.2816 101.028 53.2099 101.468C54.1648 97.5635 57.951 95.5918 63.2861 94.3005C68.6211 93.0115 75.5049 92.4027 86.8841 92.8459C98.2633 93.2891 114.135 94.7819 131.039 98.4779C147.943 102.174 165.875 108.073 185.014 115.351C204.152 122.626 224.494 131.282 249.971 142.704C275.448 154.123 306.066 168.309 333.691 180.683C361.318 193.056 385.958 203.614 406.442 208.133C426.926 212.651 443.254 211.128 454.275 205.552C465.296 199.976 471.013 190.35 474.394 180.019C477.778 169.686 478.83 158.652 477.584 148.46C476.334 138.269 472.784 128.92 468.834 120.746C464.882 112.572 460.53 105.575 455.603 98.529Z" fill="white"/>
<path fill-rule="evenodd" clip-rule="evenodd" d="M397.795 44.1111C405.075 49.7843 411.344 55.941 416.312 62.292C429.851 79.6034 433.707 98.3548 424.304 108.921C414.899 119.487 392.235 121.869 364.258 118.4C336.278 114.934 302.987 105.619 270.082 94.8376C237.178 84.0565 204.659 71.8096 177.947 64.6172C151.236 57.4271 127.892 56.0464 115.873 55.0949C103.856 54.146 100.536 54.3908 99.4246 54.2476C99.1486 54.2117 98.9966 54.1528 99.0321 54.066C98.8473 54.3549 99.584 54.7975 101.792 55.0404C103.997 55.2834 107.863 55.3175 115.415 56.1692C122.967 57.021 134.396 58.6784 148.138 61.9295C161.88 65.1804 180.378 69.2698 201.454 76.5314C222.531 83.7956 248.629 93.4719 271.837 101.291C295.045 109.11 315.365 115.067 334.987 118.955C354.608 122.843 373.533 124.662 388.03 124.306C402.53 123.951 412.603 121.418 419.381 117.656C426.155 113.893 429.634 108.898 431.074 103.189C432.517 97.4799 431.922 91.0548 429.942 84.7906C427.96 78.5264 424.587 72.421 420.739 66.7708C416.89 61.1205 412.56 55.9231 397.795 44.1111Z" fill="white"/>
<path fill-rule="evenodd" clip-rule="evenodd" d="M341.595 15.2861C348.202 18.1008 354.093 21.3384 358.722 25.0523C369.65 33.8226 373.55 44.8917 368.515 51.9501C363.48 59.0086 349.614 61.3355 332.211 61.5062C314.81 61.6744 293.958 59.3181 274.773 55.3546C255.59 51.391 238.078 45.8202 219.272 41.1638C200.467 36.5099 180.258 33.2576 168.331 31.1637C156.404 29.0699 152.645 28.619 149.742 27.8701C147.551 27.3046 145.846 26.571 145.774 25.603C145.78 26.4003 146.376 27.111 147.167 27.6205C147.958 28.1299 148.946 28.4357 154.32 29.6125C159.696 30.7893 169.57 32.3477 181.043 34.9282C192.518 37.5085 205.699 40.6262 217.838 43.9174C229.978 47.2085 241.075 50.6702 253.507 54.1064C265.939 57.5427 279.704 60.9509 294.373 63.4014C309.038 65.8518 324.608 67.3445 337.24 66.5422C349.87 65.7398 359.563 62.6422 365.197 59.0787C370.829 55.5176 372.41 51.493 372.974 47.9752C373.541 44.4574 373.094 41.4466 371.502 37.888C369.907 34.3294 367.067 30.9467 362.694 27.136C358.322 23.3253 352.318 19.8126 341.595 15.2861Z" fill="white"/>
<path fill-rule="evenodd" clip-rule="evenodd" d="M286.518 2.59056C288.146 2.88605 289.739 3.2121 291.288 3.57126C301.904 6.02936 310.386 10.0337 313.283 13.7629C316.184 17.492 313.501 20.9512 305.434 23.4577C297.368 25.9617 283.915 27.5181 270.59 27.3601C257.266 27.1997 244.066 25.3275 232.664 22.3598C221.264 19.3897 211.659 15.3243 209.536 11.7964C207.89 9.06061 210.742 6.64835 216.235 4.77102C207.642 7.67744 206.955 10.431 209.058 13.5336C211.162 16.6361 216.054 20.0825 226.354 23.3126C236.651 26.5425 252.355 29.5534 267.149 30.1494C281.944 30.748 295.826 28.9318 304.043 26.8405C312.264 24.7467 314.814 22.3803 316.01 19.9985C317.205 17.6169 317.043 15.2199 314.842 13.0012C312.64 10.78 308.398 8.73965 303.709 7.00242C299.016 5.26518 293.878 3.83107 286.518 2.59056Z" fill="white"/>
<path fill-rule="evenodd" clip-rule="evenodd" d="M165.414 483.36C199.013 490.098 241.312 490.693 287.194 473.184C333.077 455.672 382.541 420.056 416.576 382.701C450.611 345.342 469.216 306.248 479.398 269.749C489.586 233.25 491.352 199.344 486.79 171.317C482.226 143.289 470.37 121.079 459.291 104.106C448.213 87.1354 434.99 71.8977 412.437 57.6738C432.813 69.2593 448.592 85.6692 460.789 103.168C477.267 126.815 488.395 156.825 491.507 186.158C494.618 215.493 490.675 244.21 481.518 275.203C472.362 306.197 457.99 339.466 432.008 371.13C406.027 402.792 368.434 432.848 334.138 453.258C299.843 473.666 268.846 484.429 238.416 488.485C207.987 492.544 178.128 489.894 152.661 482.71C127.197 475.523 106.709 463.763 88.8223 447.858C107.531 463.742 131.815 476.621 165.414 483.36Z" fill="white"/>
</g>
<defs>
<linearGradient id="paint0_linear" x1="-35.7299" y1="50.9342" x2="65.5536" y2="560.581" gradientUnits="userSpaceOnUse">
<stop offset="0.000519012" stop-color="#B00000"/>
<stop offset="1" stop-color="#005CCD"/>
</linearGradient>
<linearGradient id="paint1_linear" x1="41.1054" y1="43.1017" x2="41.1054" y2="489.229" gradientUnits="userSpaceOnUse">
<stop stop-color="#FFCC35" stop-opacity="0.6"/>
<stop offset="1" stop-color="#24E9FF" stop-opacity="0.6"/>
</linearGradient>
<linearGradient id="paint2_linear" x1="495.789" y1="61.4453" x2="158.121" y2="97.9856" gradientUnits="userSpaceOnUse">
<stop stop-color="#F9FF53" stop-opacity="0.6"/>
<stop offset="1" stop-color="#B8FF53" stop-opacity="0.6"/>
</linearGradient>
<linearGradient id="paint3_linear" x1="154.668" y1="158.167" x2="-29.2381" y2="328.763" gradientUnits="userSpaceOnUse">
<stop stop-color="#33B1FF" stop-opacity="0.631501"/>
<stop offset="1" stop-color="#338BFF" stop-opacity="0.638139"/>
</linearGradient>
<linearGradient id="paint4_linear" x1="100.587" y1="205.258" x2="-9.99843" y2="320.035" gradientUnits="userSpaceOnUse">
<stop stop-color="#0A76FF" stop-opacity="0.7"/>
<stop offset="1" stop-color="#0A4FFF" stop-opacity="0.7"/>
</linearGradient>
<radialGradient id="paint5_radial" cx="0" cy="0" r="1" gradientUnits="userSpaceOnUse" gradientTransform="translate(282.562 71.6632) scale(171.483 31.5328)">
<stop stop-color="#FF3000" stop-opacity="0.6"/>
<stop offset="1" stop-color="#FFB900" stop-opacity="0.6"/>
</radialGradient>
<linearGradient id="paint6_linear" x1="53.332" y1="57.3432" x2="79.9523" y2="183.87" gradientUnits="userSpaceOnUse">
<stop stop-color="#FF0400" stop-opacity="0.7"/>
<stop offset="1" stop-color="#FF8800" stop-opacity="0.7"/>
</linearGradient>
<linearGradient id="paint7_linear" x1="104.083" y1="18.3024" x2="117.375" y2="99.9645" gradientUnits="userSpaceOnUse">
<stop stop-color="#BC0000" stop-opacity="0.8"/>
<stop offset="1" stop-color="#EC1A00" stop-opacity="0.8"/>
</linearGradient>
<clipPath id="clip0">
<rect width="512" height="512" fill="white"/>
</clipPath>
</defs>
</svg>
