<?xml version="1.0" encoding="UTF-8"?>
<svg width="1098px" height="402px" viewBox="0 0 1098 402" version="1.1" xmlns="http://www.w3.org/2000/svg" xmlns:xlink="http://www.w3.org/1999/xlink">
    <title>Graph</title>
    <g id="Page-1" stroke="none" stroke-width="1" fill="none" fill-rule="evenodd">
        <g id="Graph" fill="#FF0000" fill-rule="nonzero">
            <path d="M1097.73444,357.272915 L0,357.272915 L0.550292969,356.252529 L171.902649,39.298 L925.830139,39.298 L926.025208,39.6596333 L1097.73444,357.272915 Z M2.31445312,355.890834 L1095.41827,355.890834 L925.002991,40.6800801 L172.72821,40.6800801 L2.31445312,355.890834 Z" id="Path-80"></path>
            <rect id="Rectangle-9" x="8.82518768" y="341.701904" width="1080.08167" height="1.38051748"></rect>
            <rect id="Rectangle-10" x="16.2859478" y="327.904663" width="1065.16016" height="1.38051748"></rect>
            <rect id="Rectangle-11" x="23.5406628" y="314.483124" width="1050.64893" height="1.38208902"></rect>
            <rect id="Rectangle-12" x="30.6036339" y="301.423187" width="1036.52625" height="1.382092"></rect>
            <rect id="Rectangle-13" x="37.4763985" y="288.710815" width="1022.78076" height="1.3805145"></rect>
            <rect id="Rectangle-14" x="44.1698914" y="276.328613" width="1009.39227" height="1.3805145"></rect>
            <path d="M659.228185,279.154994 C622.955724,279.154994 586.670812,275.598354 548.694066,265.769618 C472.361546,246.010036 402.447362,251.69247 325.485814,260.489711 C257.359288,268.286952 187.306737,267.282253 119.570165,266.305812 C96.9646958,265.981899 73.59171,265.646999 50.689,265.646999 L50.689,264.266506 C73.5995835,264.266506 96.9803208,264.601406 119.589085,264.923732 C187.283116,265.895473 257.287083,266.896999 325.330174,259.118679 C402.430028,250.29623 472.48264,244.612209 549.038426,264.431606 C625.6713,284.271419 695.47086,278.469448 772.260899,269.516506 C840.344884,261.576198 910.373937,262.601406 978.116612,263.591945 C1000.73478,263.923732 1024.1298,264.266506 1047.04361,264.266506 L1047.04361,265.646999 C1024.11857,265.646999 1000.72208,265.304225 978.09464,264.972499 C910.406896,263.986598 840.41544,262.956691 772.422765,270.887599 C733.502599,275.426967 696.371739,279.154994 659.228185,279.154994" id="Path-81"></path>
            <path d="M664.761475,294.917756 C626.742188,294.920868 591.776368,283.0654 548.481934,254.244416 C470.440308,202.292572 419.442994,205.797333 327.607056,234.244172 C255.164429,256.681488 179.670045,255.522675 106.661378,254.403168 C90.4144294,254.151581 73.6186531,253.896881 57.043,253.896881 L57.043,252.514801 C73.6280525,252.514801 90.4301765,252.774262 106.680299,253.021088 C182.948365,254.197235 254.964844,255.299408 327.198365,232.921845 C419.486939,204.344452 470.735963,200.831879 549.249268,253.095002 C627.529908,305.20871 678.484864,301.504242 770.149293,272.541718 C842.522706,249.676728 918.025025,250.855988 991.027222,251.995881 C1007.28699,252.252228 1024.09692,252.514801 1040.68823,252.514801 L1040.68823,253.896881 C1024.08582,253.896881 1007.27124,253.631134 991.005372,253.378022 C914.743409,252.190888 842.722413,251.057221 770.566041,273.857819 C729.090699,286.963288 695.900147,294.917756 664.761475,294.917756" id="Path-82"></path>
            <path d="M660.885522,327.585091 C656.604028,327.585091 652.308374,327.253426 648.003442,326.539437 C611.402368,320.45765 585.653588,288.699471 562.936486,260.678719 C557.897058,254.463265 553.137658,248.592172 548.345056,243.079507 C543.538537,237.549599 538.777429,231.681619 533.736535,225.467751 C511.181237,197.663979 485.621179,166.151101 449.502893,160.075539 C413.928674,154.100625 378.47384,174.651162 347.181115,192.789712 C341.075769,196.327493 335.310021,199.671853 329.641564,202.766213 C253.494714,244.337441 182.14486,243.55906 99.5450068,242.692727 C87.7539912,242.566995 75.5604487,242.43644 63.238,242.43644 L63.238,241.055947 C75.5683223,241.055947 87.7649775,241.184853 99.5607539,241.312234 C181.964013,242.18644 253.150354,242.952187 328.978112,201.552346 C334.632287,198.469033 340.3901,195.127786 346.487756,191.593179 C377.981774,173.336709 413.678674,152.646279 449.727746,158.715493 C486.36654,164.875893 512.101037,196.604226 534.807214,224.595071 C539.843469,230.801125 544.596643,236.66282 549.386071,242.17228 C554.195764,247.700692 558.96322,253.584359 564.012048,259.810799 C586.57351,287.638192 612.144555,319.177743 648.228295,325.173226 C683.975366,331.108773 719.350122,310.177621 750.565698,291.707406 C756.680444,288.089486 762.454125,284.672738 768.128686,281.507577 C844.192407,239.1251 915.523461,239.901833 998.115502,240.793313 C1009.92678,240.923867 1022.14089,241.055947 1034.49319,241.055947 L1034.49319,242.43644 C1022.13308,242.43644 1009.91433,242.304421 998.101098,242.175454 C915.715112,241.27604 844.541528,240.510293 768.803247,282.716805 C763.141381,285.870858 757.375512,289.281258 751.270043,292.89454 C723.585961,309.275155 692.643823,327.585091 660.885522,327.585091" id="Path-83"></path>
            <path d="M662.903375,356.691869 C615.30694,356.696569 581.797174,294.214818 559.49505,252.629552 C555.472956,245.126317 551.671076,238.041295 548.271662,232.229955 C544.866022,226.412267 541.06402,219.32102 537.037287,211.813024 C514.881403,170.501317 481.596491,108.43308 434.92779,108.43308 C434.103815,108.43308 433.278375,108.45194 432.448175,108.491308 C405.081476,109.77744 373.472711,135.600072 350.387628,154.454015 C346.44256,157.678869 342.714533,160.724523 339.302667,163.403783 C335.013239,166.781164 330.764826,170.180578 326.532038,173.568944 C292.004938,201.218664 259.391413,227.332128 213.483698,231.264501 C181.90008,233.965795 148.9013,233.052282 116.98266,232.156042 C101.257746,231.720495 84.9949282,231.264501 69.281,231.264501 L69.281,229.885595 C85.0138491,229.885595 101.287592,230.338415 117.020502,230.777074 C148.898188,231.662328 181.863886,232.582128 213.365778,229.887182 C258.85528,225.99088 291.309992,200.004796 325.668756,172.490392 C329.903131,169.100377 334.156305,165.694677 338.450373,162.320409 C341.851374,159.64591 345.57464,156.604955 349.514948,153.386388 C372.746271,134.409765 404.56109,108.417394 432.383722,107.110753 C433.235895,107.06986 434.091242,107.051 434.934015,107.051 C482.428278,107.051 515.942804,169.553197 538.255792,211.160558 C542.274835,218.657506 546.070368,225.737768 549.463434,231.531835 C552.875543,237.366796 556.683771,244.462804 560.712091,251.976964 C582.856989,293.263585 616.135553,355.30985 662.909601,355.30985 C663.702082,355.30985 664.496149,355.294103 665.294855,355.256383 C693.677301,353.97965 722.240412,329.707372 745.190363,310.200841 C749.89007,306.208654 754.328791,302.435094 758.489191,299.093847 C762.839899,295.604833 767.143488,292.081212 771.432794,288.571752 C805.78692,260.458227 838.236872,233.904516 884.249933,229.887182 C915.817926,227.132421 948.830866,228.064855 980.763483,228.973607 C996.489923,229.423314 1012.74969,229.885595 1028.45257,229.885595 L1028.45257,231.264501 C1012.72918,231.264501 996.46026,230.805395 980.72735,230.355688 C948.830866,229.446935 915.852472,228.512914 884.369318,231.264501 C838.780939,235.244115 806.491266,261.665807 772.307062,289.639318 C768.014459,293.153539 763.704767,296.680272 759.353937,300.173986 C755.207819,303.49796 750.778498,307.263769 746.085016,311.254308 C722.974787,330.894445 694.211847,355.33817 665.357721,356.638402 C664.535456,356.67307 663.716242,356.691869 662.903375,356.691869" id="Path-84"></path>
            <path d="M664.079386,381.738442 L663.878214,381.738442 C613.163859,381.463296 579.039347,296.981301 558.647562,246.504373 C554.657084,236.623757 551.212016,228.090676 548.240336,221.648721 C545.215067,215.09208 541.740214,206.494485 537.718119,196.53843 C517.540263,146.597695 483.766337,63.0197534 433.855448,62.3452539 C433.723368,62.3420801 433.586649,62.3420801 433.454569,62.3420801 C406.207377,62.3420801 370.843852,99.3330469 349.673808,121.477944 C346.349955,124.955911 343.475687,127.959084 340.95518,130.492166 C335.205058,136.267373 329.568217,142.232827 323.596537,148.542642 C293.217265,180.675088 261.803446,213.895486 217.647318,220.361001 C187.307353,224.801309 153.947001,223.280801 121.676249,221.806008 C105.471659,221.066995 90.1648965,220.368875 75.171,220.368875 L75.171,218.986794 C90.1979165,218.986794 105.518839,219.686501 121.740641,220.425454 C153.943827,221.898721 187.235026,223.416116 217.447611,218.994668 C261.130412,212.598367 292.376078,179.552407 322.593363,147.596108 C328.569804,141.273721 334.214579,135.30668 339.978739,129.515786 C342.488261,126.995278 345.353007,123.995217 348.673808,120.521951 C369.996317,98.2198267 405.619364,60.96 433.45933,60.96 C433.600687,60.96 433.734477,60.96 433.872782,60.96 C484.701884,61.6486597 518.692851,145.764321 538.999613,196.01957 C543.016947,205.959878 546.483988,214.543374 549.49351,221.070168 C552.47935,227.541909 555.932108,236.08915 559.930644,245.985452 C580.188761,296.141641 614.097941,380.085854 663.882853,380.356301 L664.079386,380.356301 C693.015421,380.356301 724.624064,345.733376 745.55839,322.800698 C749.649455,318.321084 753.511271,314.09147 756.857218,310.657571 C762.610392,304.756448 768.256632,298.644814 774.239542,292.1746 C804.496134,259.447854 835.777873,225.603188 880.083292,218.994668 C910.372843,214.475747 943.778849,216.024453 976.092082,217.526101 C992.293498,218.277688 1007.59867,218.986794 1022.56278,218.986794 L1022.56278,220.368875 C1007.56571,220.368875 992.244669,219.659768 976.027628,218.905007 C943.785197,217.40812 910.44047,215.862527 880.289347,220.361001 C836.464884,226.897256 805.348185,260.559548 775.253458,293.114846 C769.266154,299.589822 763.610392,305.709329 757.844767,311.622903 C754.517619,315.036477 750.660685,319.259744 746.580363,323.733132 C725.482707,346.841775 693.62382,381.738442 664.079386,381.738442" id="Path-85"></path>
            <path d="M663.665873,396.675564 C663.239726,396.675564 662.819926,396.670864 662.395365,396.653591 C610.198344,394.765103 577.383524,296.96072 557.777934,238.524563 C554.062602,227.453701 550.85496,217.8923 548.224467,211.239712 C545.542094,204.459805 542.30308,194.810269 538.556132,183.640347 C519.142313,125.781338 486.649882,28.9454004 435.290873,26.6922266 C434.891581,26.6749536 434.492167,26.6654932 434.092753,26.6654932 C405.444682,26.6654932 369.129862,70.7586938 349.494486,94.5970117 C346.845072,97.8108789 344.497538,100.663113 342.505351,102.998013 C336.326151,110.2355 330.123148,118.120815 323.552348,126.465298 C296.044169,161.427883 264.863139,201.054043 221.609477,209.530544 C192.436259,215.249172 158.578959,213.334072 125.830302,211.478726 C110.018778,210.582485 95.0831094,209.733364 80.921,209.733364 L80.921,208.354458 C95.1240029,208.354458 110.077006,209.201931 125.908793,210.096646 C158.564921,211.950405 192.33726,213.859219 221.346903,208.175198 C264.097392,199.79623 295.108744,160.38699 322.469096,125.613003 C329.044535,117.254482 335.258402,109.362881 341.453471,102.100247 C343.442484,99.7731592 345.783671,96.925625 348.426859,93.7196313 C368.20994,69.7005273 404.795268,25.285 434.103739,25.285 C434.521952,25.285 434.937113,25.2959863 435.350687,25.3101465 C487.659403,27.6073267 520.340556,125.007717 539.865946,183.2001 C543.608012,194.351162 546.839213,203.984951 549.507426,210.733425 C552.152201,217.418972 555.366068,226.996121 559.086283,238.085903 C577.300272,292.370999 611.204691,393.419277 662.444193,395.27145 C662.835673,395.285671 663.2335,395.293423 663.623393,395.293423 C693.813944,395.293423 726.323832,353.920376 745.850565,329.064785 C749.457621,324.475125 752.572367,320.512783 755.320902,317.223477 C761.467143,309.864895 767.655985,301.819241 774.2064,293.297146 C801.616923,257.639553 832.687968,217.225613 876.122416,208.560391 C905.220072,202.74905 939.145121,204.698757 971.955302,206.587185 C987.763529,207.495999 1002.69139,208.354458 1016.81248,208.354458 L1016.81248,209.733364 C1002.65208,209.733364 987.703837,208.878079 971.876566,207.966091 C939.155985,206.088711 905.325541,204.143704 876.392802,209.915798 C833.467875,218.480374 802.565043,258.675747 775.302226,294.138333 C768.742411,302.671414 762.547343,310.728176 756.37913,318.107144 C753.646342,321.380703 750.537821,325.339871 746.937113,329.920193 C725.992045,356.576077 694.483866,396.675564 663.665873,396.675564" id="Path-86"></path>
            <path d="M661.608712,396.362489 C657.734444,396.362489 653.79255,395.873353 649.781563,394.832582 C602.334542,382.502259 575.807442,292.722963 558.253854,233.311952 C554.442574,220.417176 551.150094,209.278749 548.214547,200.942201 C545.255318,192.544374 541.955025,181.377534 538.132638,168.443452 C520.684273,109.397248 494.317696,20.1714794 447.603341,7.92923083 C404.132882,-3.45455824 363.657662,54.2331249 336.846017,92.401826 C331.333443,100.250947 326.572335,107.027742 322.372506,112.397248 C318.765572,117.005769 315.16816,121.79831 311.358346,126.870698 C289.520089,155.94803 264.768258,188.904328 229.645211,198.148133 C200.619698,205.788148 164.671212,203.490907 129.903634,201.273988 C114.458443,200.288148 99.8718955,199.35724 86.529,199.35724 L86.529,197.97516 C99.9174277,197.97516 114.526192,198.907655 129.99006,199.89496 C164.649239,202.107362 200.482979,204.388734 229.294503,196.810121 C263.950509,187.692048 288.549874,154.938569 310.252877,126.040498 C314.069039,120.963349 317.669747,116.164582 321.282906,111.545076 C325.462228,106.202241 330.213814,99.4380199 335.715523,91.6077587 C362.74714,53.1215526 403.593575,-5.02529798 447.952462,6.58957018 C495.421456,19.0331127 521.923409,108.710115 539.456612,168.051911 C543.274239,180.967134 546.569771,192.118226 549.51484,200.483094 C552.467599,208.852601 555.763253,220.006898 559.576241,232.922059 C577.043404,292.03119 603.438302,381.360658 650.125924,393.494447 C690.116891,403.904969 723.585763,357.362001 748.035714,323.396302 C752.615914,317.034608 756.941476,311.025087 760.781075,306.17743 C767.054757,298.260804 773.306466,289.419496 779.92756,280.059388 C803.341256,246.952088 829.882394,209.423402 868.093575,199.207826 C897.027779,191.471986 933.065865,193.795838 967.913644,196.0412 C983.3415,197.036561 997.915719,197.97516 1011.20185,197.97516 L1011.20185,199.35724 C997.868478,199.35724 983.273995,198.415467 967.824044,197.420106 C933.086251,195.185853 897.163033,192.871278 868.450509,200.541322 C830.720528,210.630921 804.333443,247.939515 781.056466,280.854921 C774.424386,290.232362 768.16169,299.091005 761.866036,307.032899 C758.042062,311.858461 753.727608,317.8537 749.158272,324.202943 C726.895455,355.127748 697.216012,396.362489 661.608712,396.362489" id="Path-87"></path>
            <path d="M661.643169,376.849482 C657.353863,376.849482 652.996929,376.244014 648.564556,374.943843 C603.973003,361.852534 576.76347,277.655024 558.753948,221.940669 C554.753826,209.555293 551.296185,198.858638 548.220745,190.7391 C545.124798,182.561305 541.65617,171.837916 537.64201,159.421168 C519.747112,104.049525 492.699749,20.3709973 448.779461,7.36928834 C407.109295,-4.96576415 366.622967,48.4357556 339.853802,83.7820081 C334.408855,90.9723767 329.705975,97.1799573 325.509319,102.189418 C321.402386,107.098292 317.290691,112.24142 312.938519,117.686427 C291.042034,145.073512 266.227276,176.114711 233.348003,186.327052 C204.269146,195.363398 166.058086,193.015864 132.347027,190.938716 C117.975811,190.056666 104.40025,189.223353 92.007,189.223353 L92.007,187.841273 C104.444195,187.841273 118.037151,188.677699 132.43034,189.55984 C166.028179,191.62585 204.103985,193.965571 232.937664,185.011012 C265.411297,174.92129 290.086102,144.056178 311.858318,116.823207 C316.216839,111.371913 320.334759,106.224025 324.451214,101.305751 C328.625774,96.318324 333.319256,90.1216687 338.753216,82.9455213 C365.753582,47.295802 406.573162,-6.5868579 449.172527,6.04537477 C493.789349,19.2530774 520.970501,103.348292 538.95805,158.993434 C542.964397,171.396083 546.426678,182.105311 549.511639,190.246974 C552.599773,198.399531 556.063641,209.111934 560.068401,221.516108 C577.988323,276.95373 605.062603,360.732905 648.952984,373.616694 C687.354351,384.891963 720.653423,341.960811 744.975933,310.609736 C749.537212,304.727656 753.850201,299.172603 757.719585,294.615962 C764.487164,286.651973 771.257671,277.725825 778.42271,268.272944 C801.948101,237.25207 828.613628,202.089839 864.392193,190.795649 C893.390972,181.646205 931.701031,184.017299 965.494,186.111659 C979.836773,187.003199 993.38731,187.841273 1005.72544,187.841273 L1005.72544,189.223353 C993.344585,189.223353 979.775494,188.38058 965.40733,187.490626 C931.726177,185.404078 893.560894,183.034572 864.808941,192.113276 C829.450054,203.275386 802.926128,238.250605 779.525005,269.110957 C772.345562,278.574824 765.565777,287.518306 758.771587,295.513667 C754.924175,300.038936 750.620708,305.586177 746.065533,311.455684 C724.274517,339.545649 695.330669,376.843257 661.643169,376.849482" id="Path-88"></path>
            <path d="M662.509978,345.204976 C657.497282,345.204976 652.442229,344.346455 647.347868,342.459614 C604.748259,326.678059 578.669401,258.820454 559.623625,209.268025 C555.557585,198.68459 551.717863,188.692341 548.232023,180.6451 C544.730437,172.558552 540.882902,162.545857 536.805754,151.946736 C517.871672,102.6852 491.937468,35.2206616 449.905485,19.5774121 C411.598601,5.33198971 370.148527,52.6752514 342.704802,84.0042309 C337.357268,90.1111645 332.739348,95.3848462 328.640227,99.6599926 C324.243864,104.241841 319.879118,108.991902 315.253264,114.017048 C293.141447,138.06136 268.081389,165.311604 236.994597,175.327473 C207.420378,184.855854 171.028593,182.807087 135.83322,180.822773 C122.19937,180.055439 109.321989,179.32906 97.358,179.32906 L97.358,177.94698 C109.361235,177.94698 122.25601,178.673359 135.90872,179.44228 C170.970305,181.417134 207.236418,183.459614 236.566923,174.009785 C267.311003,164.107197 292.240446,136.998433 314.239104,113.081501 C318.866545,108.048481 323.239226,103.296833 327.641813,98.7056469 C331.71884,94.4508252 336.330534,89.1913037 341.667082,83.0953564 C369.357634,51.4755444 411.218107,3.70460934 450.3851,18.2834057 C493.001921,34.1436352 519.066618,101.944661 538.095183,151.449849 C542.16757,162.036396 546.008757,172.034993 549.500944,180.094807 C552.997893,188.170369 556.842253,198.178303 560.914519,208.771138 C579.862883,258.078267 605.812834,325.600972 647.82736,341.165608 C683.088835,354.22707 717.238493,316.141804 742.179045,288.330159 C746.655485,283.337971 750.8851,278.62093 754.655485,274.751423 C761.910368,267.307942 769.100676,259.122334 776.715422,250.453999 C800.358854,223.541768 827.157805,193.039936 860.747771,182.033528 C890.244963,172.362019 928.366423,174.522419 962.008269,176.443806 C975.613737,177.21584 988.464567,177.94698 1000.37497,177.94698 L1000.37497,179.32906 C988.423674,179.32906 975.554045,178.59792 961.928068,177.822773 C928.416716,175.915486 890.428801,173.756672 861.180144,183.344807 C827.945646,194.233296 801.281828,224.585835 777.754851,251.365925 C770.128996,260.046894 762.924406,268.248249 755.641447,275.71999 C751.894499,279.564351 747.674284,284.271931 743.205778,289.253132 C721.55612,313.394856 693.025969,345.198628 662.509978,345.204976" id="Path-89"></path>
            <path d="M662.906312,304.081595 C653.773988,304.084644 644.465639,301.795337 635.034975,296.439991 C601.749818,277.538868 579.089357,231.999073 560.884767,195.409107 C556.457033,186.512806 552.277711,178.110157 548.260377,170.716968 C544.548097,163.885181 540.54651,155.775013 536.308961,147.188465 C516.157838,106.343738 488.563234,50.4044681 447.336427,41.1307865 C410.60486,32.871265 379.260255,60.6561161 351.599611,85.1736942 C347.230104,89.0463749 343.10425,92.7036014 338.990968,96.1957889 C333.81006,100.595203 328.53174,105.280811 322.943727,110.246265 C299.696535,130.894275 273.344057,154.297046 245.093812,163.891468 C213.66266,174.564563 176.135561,172.713916 139.845827,170.919788 C126.741945,170.270435 114.369203,169.661975 102.586,169.661975 L102.586,168.281482 C114.400636,168.281482 126.793886,168.893055 139.913515,169.540882 C176.069521,171.320789 213.462953,173.169849 244.651979,162.584827 C272.63495,153.078479 298.875856,129.774768 322.026979,109.211658 C327.621339,104.243091 332.902833,99.5511966 338.094728,95.143909 C342.19861,91.6595951 346.318117,88.0070072 350.682863,84.1406742 C378.593507,59.4014164 410.227541,31.3775516 447.639894,39.7817264 C489.511354,49.2000614 517.27588,105.480518 537.546388,146.575244 C541.779176,155.150806 545.774538,163.24834 549.472658,170.059742 C553.502565,177.474903 557.689821,185.886951 562.120607,194.792713 C580.244997,231.214466 602.798646,276.545093 635.715639,295.23711 C676.253725,318.264087 714.966371,282.987049 746.072084,254.639209 C750.534486,250.569995 754.751527,246.724048 758.808168,243.211475 C764.63849,238.15636 770.353822,232.925159 776.404115,227.388965 C799.589906,206.165454 823.569643,184.220264 852.648744,174.165149 C884.015443,163.323841 921.617982,165.196521 957.984682,167.012561 C971.060121,167.665088 983.410951,168.281482 995.1485,168.281482 L995.1485,169.661975 C983.377992,169.661975 971.009828,169.043994 957.917055,168.391468 C921.679262,166.583301 884.211977,164.713794 853.101381,175.47179 C824.289857,185.430957 800.420229,207.278736 777.333314,228.407825 C771.279848,233.950367 765.558168,239.18938 759.713686,244.252307 C755.66974,247.758655 751.460512,251.595203 747.002992,255.65813 C722.725893,277.780994 693.862611,304.078418 662.906312,304.081595" id="Path-90"></path>
            <path d="M661.434507,261.466829 C652.487852,261.466829 643.379331,259.785981 634.115049,255.872468 C602.948179,242.704072 579.180601,207.026033 560.082944,178.357515 C555.963315,172.173433 552.071836,166.330659 548.302915,160.986238 C544.590513,155.723604 540.850034,150.143342 536.886167,144.234529 C513.931455,110.010896 487.915464,71.2195752 448.591123,63.4585278 C413.343931,56.5087598 382.744565,76.806123 353.142148,96.4352734 C349.374814,98.9337475 345.646787,101.405427 341.954893,103.789155 C336.421812,107.356782 330.906064,111.06595 325.066343,114.992097 C300.790952,131.308259 275.688535,148.182649 248.587583,155.575776 C216.621885,164.296052 180.347959,162.767671 145.281553,161.291291 C132.163511,160.737825 119.771909,160.215791 107.69,160.215791 L107.69,158.835237 C119.798521,158.835237 132.205869,159.358857 145.338071,159.912324 C180.305479,161.385591 216.461484,162.909211 248.226011,154.24405 C275.106748,146.909028 300.11334,130.099092 324.295957,113.84427 C330.143491,109.91501 335.663999,106.202668 341.204893,102.627168 C344.8952,100.248201 348.618467,97.7796338 352.377988,95.2858594 C380.826353,76.4209302 413.073545,55.0449536 448.861631,62.104707 C488.744199,69.9759228 516.074521,110.724702 538.033872,143.465608 C541.989927,149.36667 545.730527,154.94217 549.430234,160.187471 C553.213315,165.550752 557.107969,171.398286 561.232358,177.590181 C580.229307,206.106233 603.867856,241.595552 634.654355,254.598848 C674.436338,271.40085 711.776304,246.138032 744.712095,223.843782 C748.482603,221.291902 752.191709,218.783967 755.82855,216.386201 C761.770444,212.474153 767.827207,208.294893 773.688779,204.253999 C797.215757,188.022676 821.549375,171.24106 849.153379,163.568025 C881.07208,154.700044 917.397886,156.250337 952.528623,157.747224 C965.626401,158.306978 977.997373,158.835237 990.041685,158.835237 L990.041685,160.215791 C977.96771,160.215791 965.583921,159.689058 952.470518,159.129304 C917.440366,157.629243 881.224424,156.088411 849.524473,164.901338 C822.143735,172.50998 797.907651,189.225496 774.470273,205.390779 C768.606992,209.434846 762.542539,213.620454 756.589536,217.540315 C752.954282,219.934968 749.252988,222.439729 745.485654,224.988496 C719.859678,242.336152 691.59686,261.466829 661.434507,261.466829" id="Path-91"></path>
            <path d="M664.476922,214.635579 C656.959588,214.635579 649.742547,213.913899 642.682732,212.503499 C613.500115,206.670064 585.29699,188.424641 548.378289,151.493489 C510.716058,113.816975 483.421746,96.1029859 454.168206,90.3528638 C424.888055,84.6059766 392.192742,91.1736646 344.862054,112.348408 C264.675652,148.215108 198.04931,150.987141 112.682,150.987141 L112.682,149.605061 C197.877923,149.605061 264.361199,146.840901 344.294427,111.087422 C391.905022,89.7868848 424.844109,83.1861158 454.43554,88.9991041 C483.981438,94.8057447 511.481683,112.629841 549.353143,150.517048 C586.065789,187.239094 614.059808,205.37447 642.95324,211.148152 C672.909417,217.134053 705.796502,210.514485 752.915032,189.003254 C833.014886,152.428975 899.653924,149.605061 985.051019,149.605061 L985.051019,150.987141 C899.829949,150.987141 833.337151,153.803242 753.484124,190.261128 C717.144158,206.854085 689.186395,214.635579 664.476922,214.635579" id="Path-92"></path>
            <path d="M665.511148,178.697193 C626.054728,178.69878 590.947428,167.042957 548.517862,142.264454 C483.210489,104.124073 430.86088,97.4510994 355.364908,117.646229 C271.319986,140.1339 197.943521,141.962513 117.559,141.962513 L117.559,140.58202 C197.842813,140.58202 271.123453,138.754932 355.007975,116.312916 C430.903482,96.007679 483.542276,102.721546 549.214396,141.071033 C616.438272,180.326099 665.182535,186.459827 742.395548,165.366871 C826.291056,142.44524 899.714762,140.58202 980.171549,140.58202 L980.171549,141.962513 C899.818521,141.962513 826.490763,143.824207 742.75712,166.700184 C713.855997,174.596546 688.917032,178.697193 665.511148,178.697193" id="Path-93"></path>
            <path d="M662.138899,148.774755 C621.537825,148.774755 585.345747,143.694494 548.677046,133.268346 C490.899824,116.843603 433.9196,113.758642 358.146895,122.950597 C280.498213,132.368932 205.409468,133.136205 122.33,133.136205 L122.33,131.755712 C205.363875,131.755712 280.4102,130.986791 357.980146,121.579504 C433.949507,112.365575 491.093184,115.461523 549.054487,131.941259 C607.209211,148.471288 664.192366,151.521642 739.603499,142.128454 C816.76634,132.518285 888.994856,131.755712 975.401594,131.755712 L975.401594,133.136205 C889.043684,133.136205 816.85594,133.900426 739.776594,143.501134 C711.686506,146.996435 686.142317,148.774755 662.138899,148.774755" id="Path-94"></path>
            <rect id="Rectangle-15" x="126.997787" y="123.122688" width="843.734924" height="1.38208604"></rect>
            <rect id="Rectangle-16" x="131.563858" y="114.677628" width="834.604309" height="1.38208604"></rect>
            <rect id="Rectangle-17" x="136.032516" y="106.411842" width="825.670288" height="1.38208604"></rect>
            <rect id="Rectangle-18" x="140.403488" y="98.3268585" width="816.924988" height="1.38208604"></rect>
            <rect id="Rectangle-19" x="144.685104" y="90.4037704" width="808.361938" height="1.38052654"></rect>
            <rect id="Rectangle-20" x="148.87854" y="82.6490097" width="799.975037" height="1.38208604"></rect>
            <rect id="Rectangle-21" x="152.985489" y="75.0530319" width="791.761169" height="1.38208604"></rect>
            <rect id="Rectangle-22" x="157.009064" y="67.6111298" width="783.713928" height="1.38208604"></rect>
            <rect id="Rectangle-23" x="160.949326" y="60.3217239" width="775.831787" height="1.38208604"></rect>
            <rect id="Rectangle-24" x="164.814148" y="53.1738663" width="768.102112" height="1.38208604"></rect>
            <rect id="Rectangle-25" x="168.603455" y="46.1690521" width="760.524963" height="1.38208604"></rect>
            <path d="M1061.7294,356.895628 L901.267,40.3028545 L902.496492,39.677 L1062.9606,356.269834 L1061.7294,356.895628 Z" id="Path-95"></path>
            <rect id="Rectangle-26" transform="translate(953.229923, 198.284639) rotate(334.683533) translate(-953.229923, -198.284639) " x="952.541" y="23.17" width="1.37784648" height="350.229279"></rect>
            <rect id="Rectangle-27" transform="translate(924.347744, 198.285989) rotate(336.285675) translate(-924.347744, -198.285989) " x="923.658" y="25.391" width="1.37948871" height="345.789978"></rect>
            <rect id="Rectangle-28" transform="translate(895.463151, 198.286133) rotate(337.928619) translate(-895.463151, -198.286133) " x="894.773" y="27.472" width="1.38030291" height="341.628265"></rect>
            <path d="M924.768021,356.821449 L807.097,40.2285532 L808.392654,39.749 L926.063675,356.341896 L924.768021,356.821449 Z" id="Path-96"></path>
            <rect id="Rectangle-29" transform="translate(837.698872, 198.285943) rotate(341.330017) translate(-837.698872, -198.285943) " x="837.007" y="31.197" width="1.3837446" height="334.177887"></rect>
            <path d="M856.293123,356.781662 C843.167269,313.620834 830.4722,277.239975 811.187288,239.992782 C801.081941,220.476791 798.042635,196.841354 795.106966,173.98735 C793.449739,161.098861 791.739046,147.768539 788.764192,135.69133 C783.350618,113.708419 776.23575,91.4393765 769.356722,69.9061123 C766.241976,60.1481777 763.017122,50.0568691 760.017,40.1888271 L761.337801,39.791 C764.336214,49.6464687 767.556429,59.7330166 770.671175,69.4831387 C777.561189,91.0399624 784.680818,113.334213 790.106966,135.362777 C793.10074,147.515426 794.814607,160.88182 796.47806,173.809677 C799.399446,196.548935 802.418489,220.058578 812.410677,239.355941 C831.750398,276.695907 844.467562,313.14598 857.615511,356.382309 L856.293123,356.781662 Z" id="Path-97"></path>
            <path d="M822.053407,356.763468 L815.995118,334.362284 C809.996705,312.189127 804.002931,290.019083 798.043702,267.837992 C792.666383,269.62266 789.439942,273.462259 788.186769,279.555094 L787.744874,281.702921 L786.875367,279.685648 C774.69922,251.447916 771.628419,219.634684 768.656617,188.871805 C767.056031,172.311869 765.403443,155.189066 762.337403,139.011271 C757.875123,115.454386 751.013429,91.4824619 744.378053,68.3030186 C741.731935,59.0497227 738.992799,49.4851475 736.474,40.1706333 L737.808839,39.809 C740.323121,49.1157017 743.062135,58.6755161 745.705201,67.9224644 C752.351441,91.1334019 759.22107,115.136759 763.697511,138.75181 C766.774537,154.992533 768.430299,172.148355 770.030885,188.739725 C772.925538,218.711771 775.914552,249.677469 787.345582,277.251627 C789.053102,271.605326 792.741822,267.927652 798.333009,266.303385 L799.007569,266.106852 L799.189942,266.789286 C805.210572,289.198282 811.268678,311.599527 817.328553,333.999063 L823.386903,356.401773 L822.053407,356.763468 Z" id="Path-98"></path>
            <path d="M787.818935,356.740987 C786.105067,349.495687 784.420985,342.236166 782.738612,334.976644 C778.048305,314.738973 773.203944,293.83785 767.688197,273.4587 C764.392543,286.458822 761.851649,299.756124 760.137782,313.025167 L759.763515,315.891561 L758.801234,313.166585 C741.889125,265.420919 736.019618,210.591695 730.345058,157.567586 C726.13119,118.216573 721.775722,77.5274253 712.936,40.1481528 L714.278773,39.829 C723.14059,77.2915854 727.502284,118.027914 731.717738,157.419759 C737.275966,209.355855 743.022792,263.023031 759.151942,309.976339 C760.982143,296.745138 763.617396,283.510641 767.001063,270.584493 L767.655238,268.092245 L768.336024,270.57662 C774.144252,291.781209 779.197719,313.581747 784.08456,334.663656 C785.766933,341.923177 787.449428,349.179647 789.161708,356.421773 L787.818935,356.740987 Z" id="Path-99"></path>
            <path d="M753.581157,356.72095 C752.126689,349.54639 750.738262,342.330936 749.348369,335.099735 C745.757183,316.443851 742.054302,297.195194 737.151714,278.602298 C735.151714,300.773929 733.448833,323.211185 732.084087,345.352908 L731.857646,348.983524 L730.734966,345.522708 C713.200298,291.434085 708.706401,230.029422 704.358867,170.645236 C701.160747,127.000095 697.860454,81.8722871 689.395,40.1265596 L690.74876,39.853 C699.229961,81.6867402 702.538188,126.858615 705.734722,170.543002 C709.984722,228.56409 714.371685,288.512698 730.934673,341.585697 C732.342021,319.341678 734.087261,296.835208 736.12498,274.625858 L736.474102,270.834964 L737.480327,274.504764 C742.903423,294.294193 746.86729,314.904544 750.703716,334.837161 C752.09373,342.063602 753.482036,349.276004 754.934917,356.444339 L753.581157,356.72095 Z" id="Path-100"></path>
            <path d="M697.269818,384.77948 L696.802777,379.205444 C693.960004,345.2948 691.711591,310.888733 689.540082,277.613281 C684.448896,199.618713 679.181562,118.968567 665.856,40.1061401 L667.217694,39.875 C680.554242,118.809753 685.82475,199.49292 690.91911,277.520447 C692.922284,308.248718 694.993085,339.939392 697.53703,371.31073 C697.827924,367.038696 698.123578,361.522888 698.458417,355.290161 C700.433393,318.297607 702.529218,287.588196 708.172406,286.509521 L708.864301,286.374329 L720.704022,356.466248 L719.345502,356.698975 L707.777753,288.235962 C703.188031,292.621216 701.024579,333.140503 699.837445,355.364075 C699.228925,366.752502 698.746259,375.749451 698.173871,379.258911 L697.269818,384.77948 Z" id="Path-101"></path>
            <path d="M664.737922,401.46462 L664.409431,395.017965 C662.755256,362.611959 661.524055,329.70754 660.333869,297.883321 C657.170295,213.258199 653.895148,125.751088 642.318,40.08196 L643.688972,39.898 C655.274055,125.631582 658.547614,213.171773 661.715949,297.833028 C662.789802,326.605245 663.899909,356.266011 665.326057,385.637349 C665.739631,378.082174 665.695563,368.813375 665.649909,359.176412 C665.521003,330.674459 665.368537,298.3644 675.901618,286.721334 L676.898444,285.620626 L686.480354,356.489278 L685.10926,356.674825 L675.940925,288.845479 C666.764777,301.029561 666.907844,331.860128 667.031989,359.173238 C667.099616,373.314962 667.161018,386.67043 665.781989,395.093404 L664.737922,401.46462 Z" id="Path-102"></path>
            <path d="M636.200044,384.477502 L634.824189,384.40365 C633.97519,358.65487 633.270723,332.494226 632.586763,307.196863 C630.231416,219.563928 627.792695,128.948175 618.78,40.0605405 L620.157441,39.919 C629.171724,128.863275 631.610444,219.502527 633.968965,307.160608 C634.528657,327.892053 635.099458,349.198816 635.758271,370.386194 C635.874604,364.342004 635.758271,357.725671 635.640352,350.906457 C635.229951,327.36532 634.764497,300.68258 643.953218,286.805139 L645.017793,285.190393 L652.248994,356.511804 L650.87314,356.653406 L644.046113,289.298913 C636.189058,303.256555 636.629243,328.500573 637.020845,350.884485 C637.242524,363.533899 637.450044,375.480554 636.200044,384.477502" id="Path-103"></path>
            <path d="M616.641311,356.628113 L612.290603,292.270447 C611.037429,299.507995 610.487136,308.009582 609.911574,316.908996 C609.326857,325.939026 608.721389,335.278747 607.312575,343.558777 L605.941481,343.459656 C605.472854,324.893371 605.046828,306.33197 604.619216,287.776672 C602.752761,206.562073 600.823562,122.57846 595.248,40.0351865 L596.623732,39.944 C602.20552,122.515594 604.134963,206.51178 606.001174,287.743713 C606.362868,303.434021 606.721389,319.126159 607.109694,334.825989 C607.744948,328.962707 608.144362,322.82428 608.53279,316.821106 C609.251296,305.750183 609.927321,295.290954 611.96675,287.020447 L613.031203,282.721618 L618.017043,356.535339 L616.641311,356.628113 Z" id="Path-104"></path>
            <path d="M582.408707,356.607602 C582.174454,349.681393 581.982682,342.744259 581.786148,335.807064 C581.271988,317.313168 580.740494,298.240597 579.399308,279.474728 C578.693375,282.237301 578.152481,282.454281 577.542374,282.421261 C575.405533,282.226315 574.545548,270.718319 575.438614,205.852902 C575.543961,198.175167 575.628922,192.11694 575.594254,189.907772 C574.779801,134.825436 573.09108,80.8688931 571.709,40.0147061 L573.09108,39.966 C574.471573,80.8279995 576.160294,134.794003 576.976334,189.887326 C577.007706,192.113766 576.930802,197.885861 576.819107,205.871762 C576.534562,226.588925 575.883561,273.82214 577.663468,280.488827 C577.948014,279.701168 578.403946,277.990414 579.029801,274.286007 L579.954361,268.789059 L580.397721,274.348874 C582.025162,294.75787 582.60524,315.607113 583.168229,335.766171 C583.360123,342.703366 583.554947,349.637326 583.789322,356.558834 L582.408707,356.607602 Z" id="Path-105"></path>
            <rect id="Rectangle-30" x="548.174927" y="39.9897575" width="1.38213396" height="316.592834"></rect>
            <path d="M515.322493,356.607602 L513.942,356.558834 C514.602278,337.020871 516.569319,311.372799 518.652693,284.221615 C523.366561,222.719418 528.712508,153.012753 521.275374,125.117794 L521.24388,125.001461 L521.253279,124.883542 C522.946761,104.578244 523.47032,83.7589077 523.976546,63.6266445 C524.176253,55.7240566 524.372786,47.833981 524.64012,39.966 L526.0222,40.0147061 C525.754988,47.8764004 525.558455,55.7648892 525.358748,63.6611904 C524.850813,83.7745938 524.327254,104.573544 522.64012,124.877255 C530.091536,153.077206 524.745467,222.799557 520.028426,284.325375 C517.948226,311.465634 515.981307,337.099484 515.322493,356.607602" id="Path-106"></path>
            <path d="M481.091854,356.628113 L479.716,356.535339 C484.995907,278.353576 486.917294,198.811981 488.777401,121.886627 C489.297909,100.332977 489.818295,78.7682798 490.409481,57.1988828 L491.785214,57.1329038 C493.837094,73.7698057 495.115536,90.6693418 495.590268,107.444671 C498.857602,92.4602354 499.541562,75.2446592 500.206723,58.5432432 C500.464657,52.0023496 500.711483,45.8229673 501.109188,39.944 L502.485043,40.0351865 C502.091977,45.895355 501.846615,52.0667417 501.584042,58.59671 C500.843441,77.298126 500.073056,96.6395566 495.686215,112.884979 L494.418881,117.58316 L494.329403,112.718353 C494.051083,97.5357969 493.110775,82.2211606 491.525814,67.0590513 C491.039975,85.3501279 490.59808,103.639618 490.157895,121.922821 C488.299374,198.857574 486.377987,278.416565 481.091854,356.628113" id="Path-107"></path>
            <path d="M446.858319,356.653186 L445.481,356.511646 C454.213788,270.375537 456.674481,182.585315 459.051801,97.6851074 C459.798627,71.0071899 460.570722,43.4172241 461.525189,16.2598145 L462.900922,16.2 C463.630536,22.0821411 463.562909,31.7787964 463.484296,43.0037109 C463.314496,67.3876831 463.106854,97.4932739 470.704511,107.705676 L477.57414,39.9203369 L478.951459,40.0603516 L471.768964,110.924243 L470.736005,109.869189 C461.702924,100.636401 461.924604,68.6754028 462.102216,42.9943115 C462.110028,41.9141113 462.116376,40.8480713 462.124188,39.7977173 C461.509442,59.2460815 460.965375,78.7147705 460.430829,97.7244141 C458.053388,182.649829 455.595868,270.465137 446.858319,356.653186" id="Path-108"></path>
            <path d="M412.624094,356.673431 L411.253,356.489471 C422.911936,270.224457 425.80195,182.071045 428.594431,96.8248901 C429.573923,66.9472046 430.586496,36.0522461 431.959177,5.63214111 L432.215524,0 L433.327097,5.52679443 C434.819284,12.9388428 434.996896,25.6653442 435.201364,40.4028931 C435.567819,66.4927979 436.017404,98.7493896 444.842966,107.979065 L454.044382,39.8966064 L455.415476,40.0806274 L445.872873,110.694519 L444.915354,109.922485 C434.676218,101.642517 434.220285,69.1185913 433.820871,40.4233398 C433.684152,30.5820312 433.55195,21.1196899 432.981271,13.8319092 C431.787912,41.6026001 430.866525,69.6563721 429.974924,96.8688965 C427.180856,182.152771 424.290964,270.339203 412.624094,356.673431" id="Path-109"></path>
            <path d="M378.385521,356.696591 L377.027,356.465512 C391.456443,271.043271 394.206565,183.595822 396.863792,99.0273403 C397.668724,73.4987759 398.49575,47.1054653 399.635765,21.0800137 L399.777244,17.841 L400.967552,20.8551602 C403.7145,27.8112148 404.923606,41.4088711 406.204979,55.8004727 C408.197166,78.2158169 410.45034,103.530575 418.937767,108.363888 L430.51345,39.8726772 L431.875145,40.1038174 L420.003929,110.345089 L419.208396,110.024289 C409.283714,106.025814 407.019554,80.5554775 404.829246,55.9215664 C403.758445,43.8915371 402.737937,32.4213223 400.846458,25.0533413 C399.794578,49.7988857 399.008323,74.8258633 398.245872,99.0698208 C395.583885,183.685482 392.832298,271.181637 378.385521,356.696591" id="Path-110"></path>
            <path d="M344.15076,356.72095 L342.797,356.444339 C353.638309,302.967288 356.054935,248.241824 358.396243,195.316867 C360.537723,146.839938 362.753177,96.7104829 371.446658,47.8011812 L371.981326,44.7901338 L372.794192,47.7399019 C379.030032,70.4209321 384.261233,93.6742891 388.350955,116.894687 C397.055423,100.73569 400.523929,78.8769868 403.597903,59.5151094 C404.70325,52.5339082 405.750491,45.9426606 406.983157,39.853 L408.337039,40.1265596 C407.109012,46.1879609 406.064944,52.7666353 404.959598,59.7305635 C401.762942,79.8974336 398.135623,102.752963 388.604007,119.27518 L387.652835,120.927707 L387.325687,119.050327 C383.372928,96.2529634 378.311526,73.4052461 372.275394,51.087375 C364.034671,98.9447969 361.871097,147.951572 359.776736,195.378208 C357.433963,248.355106 355.014163,303.138675 344.15076,356.72095" id="Path-111"></path>
            <path d="M309.913773,356.740987 L308.571,356.421773 C320.76143,304.869405 325.138871,252.430135 329.365312,201.719015 C332.725297,161.432394 336.198686,119.771566 343.565141,78.6422935 L343.9283,76.6201987 L344.86226,78.4503989 C351.659623,91.7681479 357.200517,105.809164 361.351396,120.210287 C370.585893,102.607931 374.925492,81.0620933 379.122025,60.2065024 C380.560746,53.0649619 381.916093,46.3164878 383.453812,39.829 L384.796586,40.1481528 C383.266801,46.613668 381.911454,53.3479819 380.477372,60.4785361 C376.137772,82.0306602 371.653397,104.318624 361.761918,122.3738 L360.945756,123.862875 L360.488236,122.229208 C356.50081,108.007345 351.148515,94.1219687 344.565141,80.9269004 C337.45662,121.329793 334.044633,162.245321 330.741044,201.835348 C326.509843,252.596883 322.132523,305.084859 309.913773,356.740987" id="Path-112"></path>
            <path d="M275.677374,356.763468 L274.344,356.401773 C287.424322,308.016092 294.065924,258.973124 300.487311,211.543436 C304.954352,178.572977 309.570807,144.479898 316.325445,110.600626 L316.459234,109.926065 L317.133795,110.058146 C325.133795,111.631998 331.048956,116.218607 334.737677,123.696634 C343.858771,104.22471 349.295904,82.1993198 354.5586,60.8846836 C356.283453,53.9050083 358.06336,46.6895542 359.921881,39.809 L361.25672,40.1706333 C359.401373,47.0355015 357.621588,54.2446689 355.899786,61.2132969 C350.500372,83.0829868 344.916998,105.698038 335.355597,125.621134 L334.701544,126.978128 L334.099249,125.599161 C330.759649,117.98118 325.193487,113.259378 317.544073,111.556559 C310.874273,145.168558 306.28919,178.997538 301.858404,211.728983 C295.429083,259.20109 288.779669,308.288126 275.677374,356.763468" id="Path-113"></path>
            <path d="M241.439266,356.781662 L240.117,356.382309 C242.989559,346.935714 246.134212,337.226364 249.176692,327.842697 C255.887508,307.125473 262.830989,285.703903 267.684749,264.636032 C270.673763,251.657943 271.694271,236.824447 272.683284,222.481552 C274.261897,199.580368 275.890804,175.89775 285.368953,157.383407 L290.1347,148.100265 C307.64117,114.040207 322.759334,84.6216885 336.393001,39.791 L337.715389,40.1888271 C324.043758,85.1421353 308.899104,114.612533 291.361019,148.732345 L286.600032,158.013961 C277.250911,176.27507 275.629939,199.813095 274.062312,222.575851 C273.071712,236.973861 272.044856,251.860763 269.027522,264.944259 C264.164241,286.073349 257.213069,307.524887 250.491268,328.268844 C247.450374,337.647812 244.307186,347.349228 241.439266,356.781662" id="Path-114"></path>
            <path d="M207.20134,356.803668 L205.89,356.361834 C216.787888,324.111468 226.069443,290.991656 235.044419,258.95827 C242.168687,233.525653 249.536667,207.228229 257.664109,181.555011 C265.68303,156.221393 276.217759,131.244708 286.403367,107.090411 C295.5905,85.3024473 305.093796,62.77077 312.865891,39.769 L314.177292,40.2107725 C306.387864,63.2628965 296.875168,85.8166074 287.677048,107.626544 C277.500779,131.752582 266.981858,156.697833 258.980088,181.970111 C250.862168,207.622882 243.495774,233.912494 236.374619,259.332538 C227.394944,291.380023 218.110215,324.518756 207.20134,356.803668" id="Path-115"></path>
            <path d="M172.963654,356.821449 L171.668,356.341896 L289.339021,39.749 L290.634553,40.2285532 L172.963654,356.821449 Z" id="Path-116"></path>
            <rect id="Rectangle-31" transform="translate(202.268133, 198.286174) rotate(292.091980) translate(-202.268133, -198.286174) " x="31.454" y="197.596" width="341.628265" height="1.38034737"></rect>
            <rect id="Rectangle-32" transform="translate(173.383974, 198.285766) rotate(293.789886) translate(-173.383974, -198.285766) " x="0.489" y="197.596" width="345.789948" height="1.37953258"></rect>
            <path d="M70.2439482,356.874939 L68.997,356.286926 L218.76116,39.694 L220.007986,40.2821348 L70.2439482,356.874939 Z" id="Path-117"></path>
            <path d="M36.0016143,356.895628 L34.772,356.269834 L195.234341,39.677 L196.465542,40.3028545 L36.0016143,356.895628 Z" id="Path-118"></path>
        </g>
    </g>
</svg>